<?xml version="1.0" encoding="UTF-8" standalone="no"?>
<!-- Created with Inkscape (http://www.inkscape.org/) -->

<svg
   width="173.2088"
   height="100.11578"
   viewBox="0 0 173.2088 100.11578"
   version="1.1"
   id="svg1"
   xml:space="preserve"
   xmlns:inkscape="http://www.inkscape.org/namespaces/inkscape"
   xmlns:sodipodi="http://sodipodi.sourceforge.net/DTD/sodipodi-0.dtd"
   xmlns="http://www.w3.org/2000/svg"
   xmlns:svg="http://www.w3.org/2000/svg"><sodipodi:namedview
     id="namedview1"
     pagecolor="#ffffff"
     bordercolor="#000000"
     borderopacity="0.25"
     inkscape:showpageshadow="2"
     inkscape:pageopacity="0.0"
     inkscape:pagecheckerboard="0"
     inkscape:deskcolor="#d1d1d1"
     inkscape:document-units="px"><inkscape:page
       x="0"
       y="0"
       width="173.2088"
       height="100.11578"
       id="page2"
       margin="0"
       bleed="0" /></sodipodi:namedview><defs
     id="defs1" /><g
     inkscape:label="Layer 1"
     inkscape:groupmode="layer"
     id="layer1"
     transform="translate(-376.59198,-765.81741)"><path
       style="fill:none;stroke:#000000;stroke-width:2.5;stroke-linecap:round;stroke-linejoin:round;stroke-opacity:1"
       d="m 398.75029,864.68316 c -6.01635,-14.03815 -27.24079,-71.90004 -19.05177,-75.20438 19.05177,-7.68756 33.08992,12.0327 32.08719,24.73389 -1.13328,14.3549 -26.56936,28.02863 -6.35059,-2.67394 18.04905,-27.40782 32.58856,-37.26794 26.73933,-41.61309 -9.49378,-7.05254 -19.93896,38.51574 10.19437,44.78839 40.94461,8.52315 -4.82916,50.95272 1.5041,36.26521 12.75961,-29.59093 42.76493,-84.90025 39.21688,-83.89753 -9.37744,2.65017 -17.93898,7.05271 -6.61069,24.01789 7.19957,10.78203 20.27744,16.53094 34.42282,25.36182 14.4091,8.99551 -21.87205,31.75397 -27.24153,24.41643 -5.35738,-7.321 55.87322,-21.96771 64.89039,-36.04771"
       id="path1"
       sodipodi:nodetypes="cssssssssssc"
       inkscape:export-filename="pss.svg"
       inkscape:export-xdpi="600"
       inkscape:export-ydpi="600" /></g></svg>
