<?xml version="1.0" encoding="UTF-8" standalone="no"?>
<!-- Created with Inkscape (http://www.inkscape.org/) -->

<svg width="16.336067mm" height="8.3264961mm" viewBox="0 0 16.336068 8.3264964" version="1.1" id="svg1" inkscape:version="1.4.2 (ebf0e940d0, 2025-05-08)" sodipodi:docname="wave.svg"
   xmlns:inkscape="http://www.inkscape.org/namespaces/inkscape"
   xmlns:sodipodi="http://sodipodi.sourceforge.net/DTD/sodipodi-0.dtd"
   xmlns="http://www.w3.org/2000/svg"
   xmlns:svg="http://www.w3.org/2000/svg"
   xmlns:ns1="http://www.iki.fi/pav/software/textext/">
   <sodipodi:namedview id="namedview1" pagecolor="#ffffff" bordercolor="#000000" borderopacity="0.25" inkscape:showpageshadow="2" inkscape:pageopacity="0.0" inkscape:pagecheckerboard="0" inkscape:deskcolor="#d1d1d1" inkscape:document-units="mm" inkscape:zoom="0.63606902" inkscape:cx="-177.65368" inkscape:cy="-62.886257" inkscape:window-width="1745" inkscape:window-height="923" inkscape:window-x="0" inkscape:window-y="0" inkscape:window-maximized="1" inkscape:current-layer="layer1" />
   <defs id="defs1" />
   <g inkscape:label="Layer 1" inkscape:groupmode="layer" id="layer1" transform="translate(-90.8121,-132.12486)">
      <g id="g7325" transform="matrix(1.84393,0,0,1.84393,90.81233,132.12532)" ns1:version="1.12.0" ns1:texconverter="pdflatex" ns1:pdfconverter="inkscape" ns1:text="$\\infty$" ns1:preamble="/home/shu/.config/inkscape/extensions/textext/default_packages.tex" ns1:scale="5.22689295032294" ns1:alignment="middle center" ns1:inkscapeversion="1.4.2" ns1:jacobian_sqrt="1.84393">
         <defs id="defs2233">
            <g id="g4074">
               <g id="g1283">
                  <path d="M 5.0625,-2.703125 C 4.53125,-3.375 4.40625,-3.53125 4.09375,-3.78125 c -0.5625,-0.453125 -1.109375,-0.625 -1.625,-0.625 -1.15625,0 -1.921875,1.09375 -1.921875,2.265625 0,1.140625 0.734375,2.25 1.890625,2.25 1.140625,0 1.96875,-0.90625 2.453125,-1.703125 0.546875,0.671875 0.65625,0.828125 0.96875,1.078125 0.5625,0.453125 1.125,0.625 1.625,0.625 1.171875,0 1.921875,-1.09375 1.921875,-2.265625 0,-1.140625 -0.734375,-2.25 -1.875,-2.25 -1.15625,0 -1.984375,0.90625 -2.46875,1.703125 z m 0.265625,0.34375 c 0.40625,-0.71875 1.140625,-1.734375 2.265625,-1.734375 1.0625,0 1.59375,1.046875 1.59375,1.9375 0,0.984375 -0.671875,1.78125 -1.546875,1.78125 C 7.0625,-0.375 6.625,-0.78125 6.40625,-1 6.15625,-1.265625 5.9375,-1.578125 5.328125,-2.359375 Z m -0.6875,0.421875 c -0.40625,0.71875 -1.15625,1.734375 -2.28125,1.734375 -1.046875,0 -1.59375,-1.046875 -1.59375,-1.9375 0,-0.984375 0.671875,-1.78125 1.546875,-1.78125 0.578125,0 1.03125,0.40625 1.234375,0.625 0.25,0.265625 0.484375,0.578125 1.09375,1.359375 z m 0,0" id="path678" />
               </g>
            </g>
         </defs>
         <g >
            <g transform="translate(112.144,132.788)" id="g4643">
               <path d="M 5.0625,-2.703125 C 4.53125,-3.375 4.40625,-3.53125 4.09375,-3.78125 c -0.5625,-0.453125 -1.109375,-0.625 -1.625,-0.625 -1.15625,0 -1.921875,1.09375 -1.921875,2.265625 0,1.140625 0.734375,2.25 1.890625,2.25 1.140625,0 1.96875,-0.90625 2.453125,-1.703125 0.546875,0.671875 0.65625,0.828125 0.96875,1.078125 0.5625,0.453125 1.125,0.625 1.625,0.625 1.171875,0 1.921875,-1.09375 1.921875,-2.265625 0,-1.140625 -0.734375,-2.25 -1.875,-2.25 -1.15625,0 -1.984375,0.90625 -2.46875,1.703125 z m 0.265625,0.34375 c 0.40625,-0.71875 1.140625,-1.734375 2.265625,-1.734375 1.0625,0 1.59375,1.046875 1.59375,1.9375 0,0.984375 -0.671875,1.78125 -1.546875,1.78125 C 7.0625,-0.375 6.625,-0.78125 6.40625,-1 6.15625,-1.265625 5.9375,-1.578125 5.328125,-2.359375 Z m -0.6875,0.421875 c -0.40625,0.71875 -1.15625,1.734375 -2.28125,1.734375 -1.046875,0 -1.59375,-1.046875 -1.59375,-1.9375 0,-0.984375 0.671875,-1.78125 1.546875,-1.78125 0.578125,0 1.03125,0.40625 1.234375,0.625 0.25,0.265625 0.484375,0.578125 1.09375,1.359375 z m 0,0" id="path1544" />
            </g>
         </g>
      </g>
   </g>
</svg>
