<?xml version="1.0" encoding="UTF-8" standalone="no"?>
<!-- Generator: Adobe Illustrator 18.0.0, SVG Export Plug-In . SVG Version: 6.00 Build 0)  -->

<svg
   version="1.1"
   id="Layer_1"
   x="0px"
   y="0px"
   viewBox="0 0 380 289"
   enable-background="new 0 0 298 264"
   xml:space="preserve"
   width="380"
   height="289"
   xmlns="http://www.w3.org/2000/svg"
   xmlns:svg="http://www.w3.org/2000/svg"><defs
   id="defs25" />
<g
   id="g12"
   transform="matrix(1.1672011,0,0,1.1672011,35.229131,-10.270873)">
	<g
   id="g11">
		<line
   fill="none"
   x1="191.10001"
   y1="132.60001"
   x2="74.099998"
   y2="132.60001"
   id="line1" />
		<g
   id="g10">
			<g
   id="g5">
				<g
   id="g2">
					<path
   fill="none"
   stroke="#454ea1"
   d="m 190.6,132.6 c 0,0 -6.7,15.9 -14.5,0"
   id="path1" />
					<path
   fill="none"
   stroke="#454ea1"
   d="m 161.6,132.6 c 0,0 6.7,-15.9 14.5,0"
   id="path2" />
				</g>
				<g
   id="g4">
					<path
   fill="none"
   stroke="#454ea1"
   d="m 132.6,132.6 c 0,0 6.7,-15.9 14.5,0"
   id="path3" />
					<path
   fill="none"
   stroke="#454ea1"
   d="m 161.6,132.6 c 0,0 -6.7,15.9 -14.5,0"
   id="path4" />
				</g>
			</g>
			<g
   id="g9">
				<g
   id="g6">
					<path
   fill="none"
   stroke="#454ea1"
   d="m 74.5,132.6 c 0,0 6.7,-15.9 14.5,0"
   id="path5" />
					<path
   fill="none"
   stroke="#454ea1"
   d="m 103.5,132.6 c 0,0 -6.7,15.9 -14.5,0"
   id="path6" />
				</g>
				<g
   id="g8">
					<path
   fill="none"
   stroke="#454ea1"
   d="m 132.6,132.6 c 0,0 -6.7,15.9 -14.5,0"
   id="path7" />
					<path
   fill="none"
   stroke="#454ea1"
   d="m 103.5,132.6 c 0,0 6.7,-15.9 14.5,0"
   id="path8" />
				</g>
			</g>
		</g>
	</g>
</g>
<line
   fill="none"
   stroke="#231f20"
   stroke-width="2.3344"
   x1="91.48822"
   y1="210.21339"
   x2="121.71873"
   y2="144.49998"
   id="line12" />
<g
   id="g14"
   transform="matrix(1.1672011,0,0,1.1672011,35.229131,-10.270873)">
	<g
   id="g13">
		<line
   fill="none"
   stroke="#231f20"
   stroke-width="2"
   x1="24.6"
   y1="240.60001"
   x2="48.200001"
   y2="188.89999"
   id="line13" />
		<path
   fill="#231f20"
   d="m 48.3,183.8 c -2.3,2.6 -4,4.2 -6.1,6.1 l 9.2,4.2 c 0,-1.1 0.2,-5.2 0.7,-8.6 0.5,-3.7 1.2,-6.9 1.8,-8.9 -1.1,1.8 -3.1,4.4 -5.6,7.2 z"
   id="path13" />
	</g>
</g>
<line
   fill="none"
   stroke="#231f20"
   stroke-width="2.3344"
   x1="62.65836"
   y1="15.757712"
   x2="92.772141"
   y2="81.47113"
   id="line14" />
<g
   id="g16"
   transform="matrix(1.1672011,0,0,1.1672011,35.229131,-10.270873)">
	<g
   id="g15">
		<line
   fill="none"
   stroke="#231f20"
   stroke-width="2"
   x1="73.800003"
   y1="132.60001"
   x2="50.099998"
   y2="80.900002"
   id="line15" />
		<path
   fill="#231f20"
   d="m 46.3,77.5 c 0.5,3.4 0.5,5.8 0.7,8.6 l 9.2,-4.2 c -0.8,-0.7 -3.8,-3.5 -6.1,-6.1 -2.4,-2.8 -4.4,-5.4 -5.6,-7.2 0.6,2 1.3,5.2 1.8,8.9 z"
   id="path15" />
	</g>
</g>
<line
   fill="none"
   stroke="#231f20"
   stroke-width="2.3344"
   x1="258.39798"
   y1="144.49998"
   x2="286.06064"
   y2="84.155685"
   id="line16" />
<g
   id="g18"
   transform="matrix(1.1672011,0,0,1.1672011,35.229131,-10.270873)">
	<g
   id="g17">
		<line
   fill="none"
   stroke="#231f20"
   stroke-width="2"
   x1="241.3"
   y1="24"
   x2="215.5"
   y2="80.400002"
   id="line17" />
		<path
   fill="#231f20"
   d="m 215.4,85.5 c 2.3,-2.6 4,-4.2 6.1,-6.1 l -9.2,-4.2 c 0,1.1 -0.2,5.2 -0.7,8.6 -0.5,3.7 -1.2,6.9 -1.8,8.9 1.2,-1.8 3.2,-4.4 5.6,-7.2 z"
   id="path17" />
	</g>
</g>
<line
   fill="none"
   stroke="#231f20"
   stroke-width="2.3344"
   x1="288.39505"
   y1="210.21339"
   x2="316.05771"
   y2="270.55771"
   id="line18" />
<g
   id="g20"
   transform="matrix(1.1672011,0,0,1.1672011,35.229131,-10.270873)">
	<g
   id="g19">
		<line
   fill="none"
   stroke="#231f20"
   stroke-width="2"
   x1="191.10001"
   y1="132.60001"
   x2="216.89999"
   y2="188.89999"
   id="line19" />
		<path
   fill="#231f20"
   d="m 220.7,192.4 c -0.5,-3.4 -0.5,-5.8 -0.7,-8.6 l -9.2,4.2 c 0.8,0.7 3.8,3.5 6.1,6.1 2.4,2.8 4.4,5.4 5.6,7.2 -0.6,-2 -1.3,-5.3 -1.8,-8.9 z"
   id="path19" />
	</g>
</g>






</svg>
