<svg width="809.74mm" height="671.3mm" version="1.1" viewBox="0 0 809.74 671.3"
    xmlns="http://www.w3.org/2000/svg">
    <g transform="translate(-374.73 -11.477)" style="fill:#444">
        <path d="m440.52 184.89c-8.3748-30.354-25.086-68.822-42.029-96.748-14.501-23.9-16.888-21.725 38.363-34.959 26.145-6.2625 49.143-11.837 51.106-12.388 6.8268-1.9162 43.133 79.967 57.61 129.93 2.4751 8.5423 4.1157 15.916 3.6457 16.386-0.92707 0.92705-54.958 6.0392-86.149 8.1509l-19.323 1.3082z" style="fill:#444"/>
        <path d="m547.86 165.53c-9.359-31.244-18.927-56.204-34.653-90.394-7.5951-16.513-13.809-31.539-13.809-33.391 0-4.1421 0.13081-4.1825 37.029-11.434 40.855-8.0294 75.222-12.875 77.11-10.872 6.2476 6.6287 49.982 142.24 49.988 155 2e-3 2.6968-3.7197 3.4679-22.516 4.6664-12.385 0.78963-36.946 2.9432-54.581 4.7857l-32.063 3.35z" style="fill:#444"/>
        <path d="m662.66 153.72c-4.972-20.05-27.306-89.503-39.553-123-2.4908-6.8128-4.0982-12.795-3.5719-13.293 3.5683-3.3783 119.94-8.0403 123.1-4.9318 2.9627 2.9077 40.34 159.39 38.416 160.83-0.24142 0.18094-25.721 0.91657-56.622 1.6348l-56.183 1.3058z" style="fill:#444"/>
        <path d="m874.69 181.12c-13.21-1.4026-38.235-3.2149-55.61-4.0274-17.375-0.81248-32.102-2.304-32.726-3.3144-0.62448-1.0104-4.5767-17.764-8.7827-37.231-4.206-19.466-12.222-53.6-17.813-75.852-5.5912-22.252-10.166-42.431-10.166-44.843 0-4.3569 0.16606-4.3761 26.311-3.0529 23.758 1.2024 62.305 5.0637 88.737 8.8888 8.3061 1.202 10.206 2.2726 11.407 6.4274 1.3507 4.6734 25.713 151.35 25.679 154.6-8e-3 0.82565-0.69122 1.3778-1.5168 1.227-0.82564-0.1508-12.31-1.4217-25.52-2.8243z" style="fill:#444"/>
        <path d="m956.81 189.89c-27.495-3.2501-50.195-6.1122-50.443-6.3602-0.24788-0.24798-5.9083-33.295-12.579-73.438-6.6702-40.143-12.539-75.429-13.041-78.414-0.50257-2.9847-0.23469-5.8463 0.59493-6.3591 2.733-1.6891 120.55 22.217 123.36 25.032 0.4576 0.45748 1.8548 12.526 3.1051 26.819 1.9287 22.048 11.284 91.095 15.25 112.55l1.2023 6.5051-8.7293-0.21486c-4.8012-0.11817-31.226-2.874-58.721-6.1242z" style="fill:#444"/>
        <path d="m1055.9 199.89c-14.848-1.0702-27.184-2.1334-27.413-2.3626-0.8032-0.80317-10.497-64.586-13.43-88.368-4.7986-38.906-5.908-57.044-3.489-57.044 1.1796 0 23.115 4.8919 48.746 10.871 25.631 5.9789 51.66 11.872 57.842 13.096l11.241 2.2256 1.382 17.427c1.7065 21.52 7.2795 49.067 16.162 79.89 3.726 12.929 6.3031 23.979 5.7268 24.556-1.8942 1.8975-69.209 1.6944-96.768-0.29196z" style="fill:#444"/>
        <path d="m469.45 331.97c-11.517-0.99806-21.295-2.1696-21.729-2.6034-0.43379-0.43377 0.20778-8.192 1.4254-17.24 3.1548-23.442 2.7366-64.824-0.90293-89.335-1.7143-11.545-2.6385-21.47-2.0538-22.055s13.021-1.7814 27.636-2.6591c14.615-0.87776 37.633-2.676 51.151-3.9961 13.518-1.3201 25.101-1.8771 25.741-1.2379 0.63925 0.63928 2.4029 7.0808 3.9192 14.314 5.6678 27.039 8.8109 60.307 8.8109 93.259v33.924l-36.528-0.27789c-20.091-0.15286-45.952-1.0945-57.469-2.0926z" style="fill:#444"/>
        <path d="m567.46 302.07c0-33.517-3.6908-71.859-9.2847-96.453-1.7103-7.5197-2.7979-13.947-2.4168-14.282 0.57211-0.50386 70.544-7.3531 101.18-9.9043l8.4178-0.70093 2.0346 10.252c8.0379 40.503 12.154 79.68 12.154 115.68v25.673l-15.512 5e-3c-8.5316 2e-3 -33.751 0.59619-56.044 1.3185l-40.532 1.3132z" style="fill:#444"/>
        <path d="m682.86 294.31c-1.2934-37.445-4.5928-67.972-10.45-96.69-1.7648-8.6526-2.7166-16.224-2.1152-16.826 0.60141-0.60142 26.088-1.2015 56.636-1.3336l55.542-0.24007 2.5389 15.012c4.8491 28.671 8.5889 67.247 9.8964 102.08l1.3148 35.027h-112.08z" style="fill:#444"/>
        <path d="m840.17 333.77-40.532-1.9078-0.0385-10.271c-0.10148-27.127-4.4357-83.522-8.5979-111.87l-4.6314-31.544 9.1357 0.95423c5.0247 0.52483 18.593 1.4474 30.152 2.0502 24.662 1.2861 67.233 4.823 73.256 6.0864 3.828 0.80295 4.5018 3.4091 7.5566 29.23 3.9006 32.969 8.3697 112.05 6.5939 116.68-1.3957 3.6372-7.2491 3.685-72.896 0.59495z" style="fill:#444"/>
        <path d="m944.75 338.93c-32.023-0.92481-29.021 2.6066-29.029-34.15-5e-3 -31.127-1.9427-59.1-6.7157-97.037-1.3504-10.733-1.9665-19.519-1.3691-19.523 6.447-0.0442 115.52 12.85 116.52 13.774 2.6801 2.4812 9.8886 70.117 11.065 103.82l1.2054 34.527-35.83-0.41891c-19.707-0.23038-44.838-0.679-55.846-0.99691z" style="fill:#444"/>
        <path d="m1039.2 308.04c-1.1984-30.689-5.3762-74.505-9.1929-96.413l-1.6771-9.6257 31.273 1.6195c17.2 0.89069 45.843 1.5349 63.65 1.4316l32.378-0.18789 8.2914 29.834c8.8057 31.684 17.9 74.566 17.977 84.771l0.047 6.1445-28.522 4.3841c-32.046 4.9256-55.742 7.4125-89.749 9.419l-23.197 1.3687z" style="fill:#444"/>
        <path d="m479.39 454.35c-12.66-0.86084-33.151-2.6527-45.535-3.982-26.96-2.8936-26.415-1.7181-14.433-31.131 9.4372-23.166 20.488-57.26 23.923-73.805l2.4099-11.608 13.315 1.2713c7.3233 0.69923 33.356 1.8514 57.85 2.5603 44.313 1.2826 44.535 1.3112 44.535 5.7416 0 9.1201-8.3962 52.967-15.705 82.014l-7.5542 30.023-17.893 0.24034c-9.8414 0.13215-28.252-0.46402-40.911-1.3249z" style="fill:#444"/>
        <path d="m543.44 453.66c0-1.5261 3.5567-17.514 7.9039-35.528 4.3471-18.014 9.4464-43.2 11.332-55.968l3.4278-23.215 34.204-1.2975c18.812-0.71362 44.303-1.3003 56.646-1.3036l22.442-5e-3 -1.1034 13.511c-1.2103 14.82-12.206 94.683-14.044 102.01l-1.148 4.574h-59.83c-49.666 0-59.83-0.47137-59.83-2.7747z" style="fill:#444"/>
        <path d="m677.04 456.96c-5.2291-0.41232-9.5074-1.0158-9.5074-1.341 0-0.32522 2.6638-17.432 5.9196-38.015 3.2558-20.583 6.5272-46.613 7.27-57.845 0.74271-11.232 2.2423-21.547 3.3325-22.923 1.4864-1.8762 13.81-2.4964 49.274-2.4799 26.011 0.0108 50.469 0.54774 54.352 1.1903l7.0602 1.1683-0.68555 14.322c-0.37704 7.877-2.8786 34.246-5.559 58.598-2.6804 24.352-4.8735 45.293-4.8735 46.536 0 1.6263-13.605 2.1585-48.538 1.8989-26.696-0.19835-52.816-0.69814-58.045-1.1105z" style="fill:#444"/>
        <path d="m823.32 460.55c-18.351-0.61361-34.028-1.7816-34.839-2.5954-0.81075-0.8139 0.54104-18.828 3.004-40.031s4.9972-48.368 5.6316-60.365l1.1536-21.814 35.212 1.3337c19.367 0.73353 44.895 1.9034 56.729 2.5998l21.517 1.2661-0.0399 13.21c-0.0369 12.264-1.9283 32.585-8.0756 86.767l-2.4412 21.517-22.243-0.38552c-12.234-0.21207-37.257-0.88755-55.608-1.5012z" style="fill:#444"/>
        <path d="m919.23 463.07c-15.994-0.96992-14.983 3.5519-9.5754-42.857 2.1287-18.267 4.5032-43.797 5.2766-56.733l1.4061-23.52 5.4636 1.0927c3.005 0.60101 30.022 1.7303 60.038 2.5096l54.574 1.4168-1.3269 28.203c-1.1574 24.6-7.952 86.668-9.6625 88.265-1.1296 1.0549-92.527 2.4513-106.19 1.6225z" style="fill:#444"/>
        <path d="m1030.6 454.08c3.1156-19.484 7.3296-61.235 8.4997-84.213 1.2299-24.153 1.5243-25.521 5.4947-25.54 23.758-0.11223 91.267-7.0384 123.65-12.687l15.378-2.6819 0.6344 18.202c1.1324 32.488-3.6384 87.602-8.2254 95.024-2.4356 3.9411-89.407 15.832-136.93 18.722l-9.6877 0.58903z" style="fill:#444"/>
        <path d="m377.31 540.82c0-9.7517 7.6057-36.251 18.369-64.001 9.4958-24.481 10.699-26.561 14.772-25.539 7.3711 1.85 66.029 6.8443 97.128 8.2697l29.19 1.3379-4.7762 19.29c-2.8898 11.671-5.2464 28.578-5.9666 42.808l-1.1904 23.518h-147.53z" style="fill:#444"/>
        <path d="m573.67 547-44.827-0.57975 1.2286-23.479c1.0775-20.592 7.0031-55.068 10.413-60.586 0.71844-1.1625 25.137-1.9241 61.687-1.9241h60.498l-2.6938 22.518c-1.5959 13.339-2.2549 31.288-1.6169 44.034l1.077 21.517-20.469-0.46009c-11.258-0.25299-40.641-0.72099-65.296-1.0399z" style="fill:#444"/>
        <path d="m731.58 552.21c-19.265-0.9272-42.352-2.2122-51.304-2.8554l-16.277-1.1696-1.2147-7.3458c-2.7993-16.929 0.59035-74.892 4.6218-79.034 0.87456-0.89851 26.705-0.9933 57.401-0.21073l55.811 1.4231v91.488l-7.0054-0.30466c-3.853-0.16767-22.768-1.0633-42.033-1.9905z" style="fill:#444"/>
        <path d="m819.89 556.28c-18.032-0.89543-33.344-2.1855-34.026-2.8667-1.9094-1.9051-2.8178-55.73-1.2568-74.469l1.3885-16.669 19.329 1.0733c10.631 0.5903 36.294 1.6272 57.028 2.3041l37.699 1.2308-1.5399 19.291c-0.84698 10.61-1.4626 31.226-1.3681 45.812l0.17198 26.521-22.32-0.2996c-12.276-0.16471-37.073-1.0322-55.105-1.9276z" style="fill:#444"/>
        <path d="m900.61 545.2c-1.3284-12.405-0.43419-36.635 2.4451-66.251l1.2162-12.51h120.78l-3.5677 25.52c-1.9623 14.036-4.176 34.752-4.9194 46.036l-1.3518 20.516h-113.18z" style="fill:#444"/>
        <path d="m1020.7 535.22c0.8126-13.061 2.9892-34.105 4.8368-46.765l3.3592-23.018 8.9869-0.5095c23.314-1.3218 76.145-7.1565 104.95-11.591 17.553-2.7021 32.099-4.9129 32.326-4.9129 0.937 0-7.413 29.978-18.239 65.481l-11.552 37.886-55.254 2.4399c-30.39 1.342-58.772 2.9566-63.073 3.5882l-7.819 1.1483z" style="fill:#444"/>
        <path d="m391.73 626.25c-8.6571-20.795-14.185-41.972-15.701-60.146l-1.3007-15.596h75.409c58.644 0 75.554 0.55623 76.063 2.502 0.35975 1.3761 4.4808 18.715 9.1578 38.53 4.677 19.815 8.8482 37.379 9.2694 39.03 0.66595 2.6112-4.6221 2.9218-40.592 2.3844-37.974-0.56733-66.961 1.4356-98.932 6.8361l-7.2288 1.2211z" style="fill:#444"/>
        <path d="m660.53 651.46c-16.777-3.7962-81.296-14.378-97.597-16.007-12.507-1.2498-13.623-1.7509-14.734-6.621-0.66149-2.8979-4.6049-19.23-8.7632-36.293-4.1582-17.063-8.1283-33.501-8.8222-36.528l-1.2618-5.5043 40.57 8e-3c22.313 5e-3 51.926 0.58736 65.807 1.2953l25.237 1.2872 5.285 31.23c4.7833 28.265 9.2915 61.116 9.2915 67.706 0 2.9465 0.65327 2.9714-15.012-0.57316z" style="fill:#444"/>
        <path d="m779.62 674.36c-24.688-3.9842-97.171-18.354-98.462-19.52-0.76266-0.6891-2.8053-12.962-4.5392-27.273-1.7339-14.311-5.0946-36.597-7.4683-49.524-2.3737-12.927-3.8699-23.949-3.325-24.494 1.3126-1.3126 98.533 2.855 108.73 4.661l7.9467 1.4073 2.4035 17.962c3.0925 23.112 8.7241 82.349 8.7241 91.767 0 3.9921-0.67554 7.1532-1.5012 7.0244-0.82563-0.12865-6.455-1.0334-12.51-2.0105z" style="fill:#444"/>
        <path d="m832.66 680.62c-8.8069-0.77469-20.147-2.03-25.201-2.7895l-9.1886-1.381-3.4119-39.456c-1.8766-21.701-4.6061-48.013-6.0657-58.471-1.4595-10.458-2.4098-19.3-2.1116-19.648 0.29818-0.3482 20.972 0.3273 45.942 1.5012 24.97 1.1738 49.788 2.1343 55.153 2.1343 11.78 0 10.691-3.9301 14.975 54.042 1.6676 22.568 3.592 46.661 4.2764 53.542l1.2443 12.51-29.799-0.28769c-16.39-0.15825-37.005-0.92144-45.812-1.6962z" style="fill:#444"/>
        <path d="m910.96 672.18c-0.68363-5.8262-2.5738-28.157-4.2002-49.623-1.6265-21.467-3.4923-43.759-4.1462-49.539l-1.1889-10.508h113.83l1.2315 44.535c0.6775 24.494 1.9985 48.742 2.9359 53.883 1.7017 9.3355 1.6954 9.3503-4.4595 10.479-11.582 2.1241-68.182 8.8014-85.484 10.085l-17.272 1.2811z" style="fill:#444"/>
        <path d="m1023.8 666.75c-0.029-1.7367-0.8824-11.714-1.8978-22.173-2.896-29.829-3.0374-80.219-0.23-81.954 2.6541-1.6403 119.76-7.2935 121.2-5.851 0.5081 0.50814-0.4058 5.3419-2.0308 10.742-6.3131 20.977-9.4906 47.361-8.3372 69.226l1.1213 21.254-24.364 1.4033c-13.4 0.77178-38.1 3.4522-54.888 5.9564-27.221 4.0605-30.529 4.2114-30.575 1.3955z" style="fill:#444"/>
    </g>
    <g transform="translate(-336.4 -28.699)" style="display:none">
        <path transform="translate(-38.328 17.222)" d="m395.36 119.51c-13.287 3.4372-24.697 5.5494-35.172 7.125-12.351 1.8366-23.421 2.7048-34.055 3.1328-4.1574 0.16744-8.225 0.24687-12.223 0.25586a0.33703 0.33703 0 0 0-2e-3 0c-19.616 0.0933-41.463-1.4364-59.455-2.2656h-2e-3c-4.9881-0.24503-9.8537-0.4671-14.801-0.66016h-0.0137c-23.905-0.9108-41.518-0.75033-65.453-0.0312-5.1608 0.15656-5.484 0.16963-10.645 0.32617-22.579 0.69751-48.122 1.4303-71.889-2.7246a0.337 0.337 0 0 0-0.38867 0.27344 0.337 0.337 0 0 0 0.27344 0.39063c23.861 4.1713 49.443 3.4319 72.023 2.7344 5.1608-0.15655 5.484-0.16962 10.645-0.32617 23.932-0.719 41.524-0.8795 65.42 0.0312 4.9448 0.19297 9.8096 0.41516 14.797 0.66016 17.98 0.82863 39.838 2.3591 59.492 2.2656 4.0005-9e-3 8.0734-0.0885 12.234-0.25586a0.33703 0.33703 0 0 0 0.0137 0c10.652-0.42872 21.748-1.2978 34.127-3.1387a0.33703 0.33703 0 0 0 2e-3 0c10.492-1.5781 21.927-3.6967 35.24-7.1406a0.337 0.337 0 0 0 0.24023-0.4121 0.337 0.337 0 0 0-0.41015-0.24024zm-177.23-51.133c-16.615-0.25414-32.257 0.4249-49.143 1.8535-3.4998 0.29583-6.9698 0.61692-10.443 0.95508-22.774 2.2292-49.361 5.8674-71.078 4.9902a0.337 0.337 0 0 0-0.34961 0.32226 0.337 0.337 0 0 0 0.32227 0.35156c21.81 0.8809 48.406-2.7649 71.156-4.9922l0.0156-2e-3c3.4713-0.33794 6.9371-0.65759 10.434-0.95312 22.492-1.9029 42.758-2.476 66.072-1.2812 5.0377 0.26214 10.056 0.59586 15.129 0.99414a0.33703 0.33703 0 0 0 8e-3 0c19.716 1.4922 39.174 4.2272 59.41 6.293 3.8435 0.40192 7.7256 0.76519 11.631 1.0723 9.9211 0.78508 20.112 1.3686 30.711 1.2012 7.3801-0.1339 15.13-0.49232 23.441-1.4766a0.337 0.337 0 0 0 0.29492-0.375 0.337 0.337 0 0 0-0.375-0.29492c-8.2819 0.98074-16.006 1.339-23.373 1.4727-10.567 0.16691-20.735-0.41493-30.646-1.1992-3.8985-0.30654-7.7746-0.6689-11.613-1.0703a0.33703 0.33703 0 0 0 0-2e-3c-20.22-2.0641-39.683-4.7986-59.428-6.293h-2e-3c-5.0798-0.3989-10.106-0.73156-15.152-0.99414a0.33703 0.33703 0 0 0-2e-3 0c-5.8362-0.29909-11.481-0.48755-17.02-0.57226zm-15.34-62.221c-18.53-0.0019-36.312 1.5438-54.27 4.3984-3.7877 0.60211-7.5336 1.2535-11.252 1.9492-24.504 4.5864-47.344 11.318-67.99 15.629a0.337 0.337 0 0 0-0.25977 0.40039 0.337 0.337 0 0 0 0.39844 0.25976c20.686-4.3197 43.513-11.049 67.975-15.627 3.7128-0.69467 7.4552-1.3462 11.236-1.9473 23.903-3.7997 47.479-5.272 72.938-3.8633 5.5863 0.31004 11.167 0.7531 16.77 1.3242 22.416 2.2698 42.611 6.3487 64.26 11.41 4.0276 0.94479 7.9039 1.8704 11.887 2.8223a0.33703 0.33703 0 0 0 0.0117 2e-3c9.6042 2.2996 20.422 4.9843 29.609 6.9648 8.1741 1.7535 16.482 3.3885 24.568 4.3203a0.337 0.337 0 0 0 0.375-0.29492 0.337 0.337 0 0 0-0.29687-0.37305c-8.0488-0.9275-16.337-2.5606-24.504-4.3125-9.1753-1.9778-19.996-4.6617-29.607-6.9629l-0.0117-2e-3c-3.9789-0.95096-7.8516-1.8761-11.877-2.8203-21.662-5.0645-41.889-9.1519-64.346-11.426-5.6121-0.57214-11.202-1.0136-16.799-1.3242a0.33703 0.33703 0 0 0-2e-3 0c-6.3768-0.35284-12.636-0.5267-18.812-0.52734zm185.91 159.1c-11.813 2.3974-22.042 4.1112-31.641 5.5684-12.858 1.9294-24.067 3.0875-34.975 3.8711-4.2359 0.30391-8.359 0.52958-12.406 0.68359a0.33703 0.33703 0 0 0-2e-3 0c-20.84 0.84733-40.629 0.0923-59.639-0.49609h-0.01c-3.6782-0.12277-11.189-0.38518-14.863-0.50781h-0.0117c-24.15-0.78394-39.119-0.97211-64.408-0.98047h-2e-3c-0.0151-1e-5 -0.0239 0-0.0391 0h-0.0274c-0.0629-1e-5 -0.16534 1e-5 -0.3125 0-0.32006-3e-5 -0.801 3e-5 -1.2832 0-0.48219-3e-5 -0.96509 2e-5 -1.2852 0-0.14708-1e-5 -0.24768 0-0.31054 0-0.0217-1e-5 -0.0447 0-0.0664 0h-2e-3c-3.7152-7e-4 -7.576-8.2e-4 -11.346-0.01-25.098-0.0483-55.27-0.34998-83.617-5.8965a0.337 0.337 0 0 0-0.39648 0.26562 0.337 0.337 0 0 0 0.26562 0.39649c28.431 5.5629 58.643 5.8599 83.746 5.9082 3.7706 9e-3 7.6325 9e-3 11.348 0.01 6.4e-4 1e-5 1e-3 0 2e-3 0 0.0217 1e-5 0.0447 0 0.0664 0 0.0629 1e-5 0.16346-1e-5 0.31054 0 0.32007 3e-5 0.80297-2e-5 1.2852 0 0.4822 3e-5 0.96314-2e-5 1.2832 0 0.14716 2e-5 0.24966 0 0.3125 0 6e-3 1e-5 0.0226 0 0.0274 0 0.0151 1e-5 0.0239 0 0.0391 0 7.6e-4 1e-5 1e-3 0 2e-3 0 25.291 8e-3 40.244 0.19636 64.396 0.98047a0.33703 0.33703 0 0 0 0.0117 0c3.6788 0.12279 11.189 0.3852 14.863 0.50782a0.33703 0.33703 0 0 0 0.0117 0c19.002 0.58819 38.807 1.3427 59.676 0.49414 4.0547-0.15429 8.1863-0.37719 12.43-0.68164 10.923-0.7847 22.151-1.9467 35.027-3.8789 9.6056-1.4583 19.848-3.1723 31.674-5.5723a0.337 0.337 0 0 0 0.26367-0.39843 0.337 0.337 0 0 0-0.39844-0.26368zm-271.94 73.004c-15.539 0.17009-32.163 2.1626-50.127 7.2227a0.337 0.337 0 0 0-0.23438 0.41601 0.337 0.337 0 0 0 0.41602 0.23242c35.809-10.086 66.25-7.9403 93.449-3.5 3.9669 0.64829 7.8872 1.3506 11.744 2.0801 26.012 4.9166 43.715 9.5973 67.393 11.969l0.0332 2e-3c4.8189 0.48288 9.5788 0.82451 14.357 1.0215 19.667 0.79875 35.697-0.7914 55.316-3.7422 3.5094-0.52622 7.0225-1.0756 10.545-1.6152 8.7009-1.3335 18.435-2.7785 27.154-3.3926 6.6357-0.46918 13.464-0.52507 20.035 0.31055a0.337 0.337 0 0 0 0.37695-0.29297 0.337 0.337 0 0 0-0.29297-0.37695c-6.6331-0.84347-13.502-0.7837-20.166-0.3125-8.758 0.61678-18.506 2.0626-27.209 3.3965-3.5239 0.53986-7.0384 1.0914-10.545 1.6172-19.601 2.948-35.572 4.533-55.188 3.7363-4.776-0.19686-9.5338-0.54004-14.352-1.0234-23.624-2.366-41.3-7.0382-67.334-11.959-3.8612-0.7303-7.786-1.4346-11.76-2.084-13.622-2.2238-28.075-3.8752-43.613-3.7051zm-62.215-32.043a0.337 0.337 0 0 0-0.3418 0.33203 0.337 0.337 0 0 0 0.33203 0.3418c37.308 0.53068 69.727-0.0267 99.068 0.48633a0.33703 0.33703 0 0 0 6e-3 0c4.1134 0.0739 8.1461 0.16063 12.143 0.26367 26.366 0.67461 45.562 1.8519 69.1 2.9766a0.33703 0.33703 0 0 0 0.0156 0c4.9107 0.2386 9.7698 0.459 14.639 0.65039 19.044 0.6966 35.091 1.0405 54.643 0.49024 0.75867-0.022 1.5186-0.0439 2.2812-0.0684 3.7436-0.10981 7.4951-0.25847 11.336-0.4375 12.433-0.57961 17.126-0.87088 30.461-1.5664a0.33703 0.33703 0 0 0 2e-3 0c6.7938-0.37092 14.153-0.63097 21.729-0.76953a0.337 0.337 0 0 0 0.33203-0.34375 0.337 0.337 0 0 0-0.34375-0.33008c-7.5829 0.1387-14.951 0.3981-21.754 0.76953-13.336 0.69562-18.027 0.98888-30.457 1.5684-3.8376 0.17889-7.587 0.32588-11.326 0.43555-0.76199 0.0244-1.5213 0.0464-2.2793 0.0684-19.533 0.54972-35.559 0.20615-54.598-0.49023-4.8715-0.1915-9.7339-0.41157-14.648-0.6504h-0.0156c-23.525-1.1242-42.726-2.3018-69.098-2.9766-4.0002-0.10313-8.0372-0.19171-12.154-0.26562h-6e-3c-29.357-0.51322-61.772 0.0461-99.064-0.48438zm153.93-209.28a0.3 0.3 0 0 0-0.21875 0.36328c5.4 21.651 10.469 40.013 14.793 60.475 3.4398 16.407 5.7679 31.946 6.6406 47.615 0.71621 13.682 0.37949 26.191-0.73047 37.982-0.40217 4.2616-0.85378 8.3375-1.3262 12.252a0.30003 0.30003 0 0 0 0 2e-3c-0.66691 5.8609-1.3741 11.41-2.0117 16.629-0.97933 8.1701-1.5541 15.129-1.5606 22.092a0.30003 0.30003 0 0 0 0 2e-3c0.0501 6.4609 0.53068 11.885 1.4375 18.1a0.30003 0.30003 0 0 0 0 4e-3c0.89369 5.5296 1.6366 11.823 2.4141 19.578 0.52848 6.2122 1.1435 13.968 1.9707 23.248a0.3 0.3 0 0 0 0.32617 0.27344 0.3 0.3 0 0 0 0.27148-0.32618c-0.82707-9.2785-1.4419-17.034-1.9707-23.25a0.30003 0.30003 0 0 0 0-4e-3c-0.7779-7.7595-1.5214-14.063-2.418-19.611v-4e-3c-0.90352-6.1933-1.3817-11.578-1.4316-18.01v-2e-3c7e-3 -6.9296 0.5789-13.861 1.5566-22.018 0.63725-5.216 1.3443-10.766 2.0117-16.631v-2e-3c0.47281-3.918 0.92544-7.9985 1.3281-12.266 1.1127-11.82 1.4483-24.361 0.73047-38.072a0.30003 0.30003 0 0 0 0-2e-3c-0.87477-15.706-3.2061-31.275-6.6504-47.703-4.329-20.483-9.4009-38.856-14.799-60.498a0.3 0.3 0 0 0-0.36328-0.2168zm51.025 8.3398a0.3 0.3 0 0 0-0.26172 0.33398c2.1619 17.737 5.6538 36.212 8.5059 53.068 2.7101 16.179 4.7833 31.209 5.6367 46.715 0.69591 13.478 0.50681 25.782-0.47461 37.535-0.35508 4.2418-0.76058 8.3068-1.1992 12.229a0.30003 0.30003 0 0 0-2e-3 2e-3c-0.61942 5.902-1.2936 11.422-1.9551 16.732a0.30003 0.30003 0 0 0 0 2e-3c-1.0076 8.2397-1.7245 15.38-1.9824 22.457a0.30003 0.30003 0 0 0 0 0.01c-0.18102 6.5442-7e-3 12.149 0.57422 18.352a0.30003 0.30003 0 0 0 0 4e-3c0.61049 5.6306 1.0165 11.692 1.6211 19.303 0.45059 7.29 1.2014 17.466 2.623 29.324a0.3 0.3 0 0 0 0.33203 0.26172 0.3 0.3 0 0 0 0.26367-0.33398c-1.4201-11.846-2.169-22.011-2.6191-29.295a0.30003 0.30003 0 0 0-2e-3 -4e-3c-0.60413-7.6052-1.0089-13.669-1.6211-19.316v-4e-3c-0.57864-6.1815-0.75307-11.755-0.57227-18.281a0.30003 0.30003 0 0 0 0-0.01c0.25737-7.0475 0.97239-14.167 1.9785-22.395 0.6615-5.3109 1.337-10.835 1.957-16.742v-2e-3c0.4391-3.926 0.84563-7.995 1.2012-12.242 0.98337-11.777 1.1727-24.106 0.47656-37.602a0.30003 0.30003 0 0 0 0-0.0176c-0.85505-15.537-2.9326-30.592-5.6444-46.781-2.8535-16.864-6.3434-35.331-8.502-53.041a0.3 0.3 0 0 0-0.33399-0.26172zm49.178 6.6426a0.3 0.3 0 0 0-0.30664 0.29297c-0.3986 16.95 1.9973 33.872 4.5801 50.166 2.3778 15.17 4.5945 28.667 5.834 43.4a0.30003 0.30003 0 0 0 2e-3 0.0254c1.0216 12.644 1.2604 24.253 0.58008 35.59-0.24578 4.0867-0.56646 8.0276-0.95312 11.863a0.30003 0.30003 0 0 0 0 2e-3c-0.54658 5.7807-1.2289 11.234-1.998 16.543-1.153 8.0724-2.3328 15.646-3.1973 22.68a0.30003 0.30003 0 0 0 0 4e-3c-0.7535 6.5664-1.2977 12.427-1.4023 18.418a0.30003 0.30003 0 0 0 0 4e-3c-0.032 5.4079-0.1935 11.265 0.0645 17.812 0.10418 6.1471 0.62887 14.086 2.1016 23.461a0.3 0.3 0 0 0 0.34375 0.25 0.3 0.3 0 0 0 0.25-0.34375c-1.4686-9.3486-1.9922-17.262-2.0957-23.385a0.30003 0.30003 0 0 0 0-6e-3c-0.25701-6.5237-0.0965-12.368-0.0645-17.785 0.10429-5.9602 0.64599-11.8 1.3984-18.357v-2e-3c0.86277-7.0194 2.0417-14.588 3.1953-22.664 0.77024-5.3161 1.4543-10.779 2.002-16.57v-2e-3c0.38738-3.843 0.7069-7.7907 0.95313-11.885 0.68223-11.37 0.44333-23.01-0.58008-35.676a0.30003 0.30003 0 0 0 0-2e-3c-1.2416-14.773-3.4629-28.292-5.8418-43.469-2.5817-16.287-4.9693-33.172-4.5723-50.057a0.3 0.3 0 0 0-0.29297-0.30859zm46.379 14.145a0.3 0.3 0 0 0-0.32812 0.26953c-1.2141 12.62 1.3954 25.296 4.7891 37.691 3.3562 12.305 7.4512 24.595 10.422 36.91 2.6247 10.945 4.3648 21.341 4.8047 31.975 0.15884 3.8354 0.15926 7.6162 0 11.377a0.30003 0.30003 0 0 0 0 2e-3c-0.22591 5.6904-0.8213 11.237-1.748 16.76-1.4299 8.5606-3.5014 16.542-5.9024 24.617-2.1526 7.3163-4.5304 14.314-6.5684 21.186-1.8858 6.3891-3.7257 12.877-4.6816 19.342-1.1346 7.1564-1.2331 15.076 0.97852 23.594a0.3 0.3 0 0 0 0.36523 0.21484 0.3 0.3 0 0 0 0.2168-0.36523c-2.1882-8.4275-2.094-16.258-0.96875-23.354a0.30003 0.30003 0 0 0 0-2e-3c0.94812-6.4121 2.7814-12.875 4.666-19.26 2.0333-6.8557 4.4112-13.854 6.5684-21.186 2.4049-8.0882 4.4825-16.094 5.918-24.688 0.93064-5.5459 1.5289-11.119 1.7559-16.836 0.15999-3.7779 0.15951-7.5762 0-11.428-0.44194-10.683-2.1896-21.12-4.8203-32.09-2.9788-12.349-7.0755-24.644-10.426-36.928-3.3868-12.37-5.9741-24.976-4.7715-37.477a0.3 0.3 0 0 0-0.26954-0.32617zm-195.02-23.801a0.3 0.3 0 0 0-0.16797 0.38867c8.0345 20.206 14.829 39.182 19.797 58.625 4.0542 15.989 6.5153 31.386 7.2461 46.717 0.59378 13.419-0.0606 25.733-1.5312 37.232-0.53371 4.1626-1.1225 8.1387-1.7305 11.947a0.30003 0.30003 0 0 0 0 2e-3c-0.87433 5.7165-1.7789 11.069-2.5918 16.129-1.2487 7.8948-2.0206 14.577-2.0938 21.207a0.30003 0.30003 0 0 0 0 2e-3c-0.011 6.1417 0.52464 11.26 1.627 16.982a0.30003 0.30003 0 0 0 2e-3 6e-3c1.0484 4.9504 2.1408 10.879 3.1562 17.605 0.7362 5.5907 1.4878 12.273 2.2871 20.627a0.3 0.3 0 0 0 0.32813 0.26953 0.3 0.3 0 0 0 0.26953-0.32617c-0.79987-8.359-1.5517-15.049-2.2891-20.648a0.30003 0.30003 0 0 0-2e-3 -6e-3c-1.0171-6.7381-2.1111-12.677-3.1621-17.641l-2e-3 -6e-3c-1.0958-5.6906-1.6262-10.757-1.6152-16.861a0.30003 0.30003 0 0 0 0-2e-3c0.073-6.5857 0.83983-13.235 2.0859-21.113v-2e-3c0.81226-5.0557 1.7186-10.409 2.5938-16.131l-2e-3 2e-3c0.60872-3.8132 1.1997-7.7968 1.7344-11.967 1.4748-11.532 2.1307-23.881 1.5352-37.336a0.30003 0.30003 0 0 0-2e-3 -2e-3c-0.73281-15.375-3.1991-30.814-7.2616-46.836-4.9768-19.479-11.781-38.479-19.82-58.697a0.3 0.3 0 0 0-0.39063-0.16797zm-85.037 23.699a0.3 0.3 0 0 0-0.07617 0.41797c10.747 15.491 18.278 31.364 22.471 47.537 3.4427 13.326 4.5024 26.641 3.3848 39.721-0.997 11.486-3.607 22.356-7.123 32.67-1.279 3.7483-2.6519 7.3868-4.0684 10.934-2.1264 5.3454-4.3512 10.505-6.4609 15.475-3.274 7.7322-6.1374 14.773-8.0527 21.969a0.30003 0.30003 0 0 0-0.0039 0.0195c-1.7312 6.5904-2.5761 12.782-2.1348 19.258a0.30003 0.30003 0 0 0 0 2e-3c0.44722 6.1114 1.8689 12.026 4.2383 18.211 1.8057 4.8443 4.1017 9.7943 6.377 14.959a0.3 0.3 0 0 0 0.39453 0.15234 0.3 0.3 0 0 0 0.1543-0.39453c-2.2782-5.1715-4.569-10.112-6.3633-14.926a0.30003 0.30003 0 0 0-2e-3 -2e-3c-2.3529-6.1409-3.7584-11.993-4.2012-18.041v-2e-3c-0.43606-6.4025 0.39843-12.527 2.1211-19.08v-2e-3c1.9022-7.1451 4.7537-14.162 8.0254-21.889 2.1086-4.9672 4.3345-10.131 6.4648-15.486v-2e-3c1.4191-3.5534 2.7972-7.2013 4.0801-10.961 3.5283-10.35 6.1504-21.269 7.1523-32.812 1.1234-13.147 0.0594-26.53-3.4004-39.922a0.30003 0.30003 0 0 0 0-2e-3c-4.213-16.249-11.779-32.186-22.561-47.726a0.3 0.3 0 0 0-0.41602-0.07617zm40.186-12.582a0.3 0.3 0 0 0-0.11914 0.4082c9.9672 18.238 17.662 36.08 22.74 54.264 4.1564 14.994 6.2735 29.682 6.3848 44.197 0.0564 12.726-1.3324 24.496-3.6016 35.467-0.82455 3.977-1.7178 7.7822-2.6348 11.436a0.30003 0.30003 0 0 0 0 2e-3c-1.3444 5.4726-2.743 10.663-4.0195 15.529-1.9759 7.607-3.443 14.127-4.0547 20.555a0.30003 0.30003 0 0 0-2e-3 0.0274c-0.50787 5.9158-0.2987 10.956 0.77539 16.277a0.30003 0.30003 0 0 0 2e-3 6e-3c1.1633 5.2457 2.282 9.3339 3.9434 15.441 1.1129 4.5166 2.3535 9.936 3.498 16.396a0.3 0.3 0 0 0 0.34766 0.24414 0.3 0.3 0 0 0 0.24218-0.34766c-1.1479-6.4794-2.3928-11.918-3.5078-16.443a0.30003 0.30003 0 0 0-2e-3 -6e-3c-1.661-6.1062-2.774-10.181-3.9336-15.41-1.064-5.2713-1.2742-10.246-0.76757-16.129v-4e-3c0.60687-6.3741 2.0666-12.861 4.0391-20.455v-2e-3c1.2755-4.8628 2.6753-10.056 4.0215-15.535v-2e-3c0.91858-3.6596 1.8121-7.4722 2.6387-11.459 2.2767-11.007 3.6719-22.82 3.6152-35.592a0.30003 0.30003 0 0 0 0-2e-3c-0.11161-14.57-2.2368-29.311-6.4062-44.351-5.0933-18.237-12.807-36.122-22.791-54.391a0.3 0.3 0 0 0-0.4082-0.12109z" style="display:inline;stop-color:#000000;stroke-linecap:round;stroke-linejoin:round"/>
    </g>
</svg>
