<?xml version="1.0" encoding="UTF-8" standalone="no"?>
<!-- Created with Inkscape (http://www.inkscape.org/) -->

<svg
   version="1.1"
   id="svg1"
   width="1600"
   height="81.440002"
   viewBox="0 0 1600 81.440002"
   sodipodi:docname="divider2.svg"
   inkscape:version="1.4.3 (0d15f75042, 2025-12-25)"
   inkscape:export-filename="divider2.png"
   inkscape:export-xdpi="200"
   inkscape:export-ydpi="200"
   xmlns:inkscape="http://www.inkscape.org/namespaces/inkscape"
   xmlns:sodipodi="http://sodipodi.sourceforge.net/DTD/sodipodi-0.dtd"
   xmlns:xlink="http://www.w3.org/1999/xlink"
   xmlns="http://www.w3.org/2000/svg"
   xmlns:svg="http://www.w3.org/2000/svg">
  <defs
     id="defs1" />
  <sodipodi:namedview
     id="namedview1"
     pagecolor="#ffffff"
     bordercolor="#000000"
     borderopacity="0.25"
     inkscape:showpageshadow="2"
     inkscape:pageopacity="0.0"
     inkscape:pagecheckerboard="0"
     inkscape:deskcolor="#d1d1d1"
     inkscape:zoom="0.99388008"
     inkscape:cx="834.10465"
     inkscape:cy="-67.915638"
     inkscape:window-width="1536"
     inkscape:window-height="804"
     inkscape:window-x="0"
     inkscape:window-y="0"
     inkscape:window-maximized="1"
     inkscape:current-layer="g1" />
  <g
     inkscape:groupmode="layer"
     inkscape:label="Image"
     id="g1">
    <image
       width="746.71997"
       height="81.440002"
       preserveAspectRatio="none"
       style="display:none;image-rendering:optimizeQuality"
       xlink:href="divider1.png"
       id="image1" />
    <path
       style="fill:#000000;fill-opacity:1;stroke:none"
       d="m 798.56002,81.346498 c -2.51687,-0.357676 -3.20665,-0.630762 -5.59662,-2.215725 -11.24465,-7.45713 -30.63342,-16.493125 -49.48973,-23.064317 -13.25274,-4.61842 -23.13092,-7.311913 -33.23365,-9.061852 l -2.08001,-0.360286 -140.76,-0.04286 L 5.8350262,46.558598 4.756039,45.759407 4.6185398,45.449102 566.00632,44.960216 c 96.89865,-0.08438 139.83975,-0.05157 140.92,-0.169242 4.66053,-0.507667 8.88111,-1.923162 12.8337,-4.304158 6.59369,-3.971976 12.52646,-10.355959 17.91357,-19.27595 2.43677,-4.034827 5.43068,-9.967411 5.85937,-11.6106506 0.37841,-1.4504849 1.0121,-2.5432842 2.19989,-3.7937238 2.52223,-2.6552487 7.20588,-4.92991312 11.49425,-5.58229822 1.99267,-0.303143 3.27173,-0.20716 4.74415,0.356012 18.1618,6.94646922 39.82223,10.48247062 61.70875,10.07377162 3.168,-0.05916 6.76801,-0.174719 8,-0.256803 5.29788,-0.352979 5.78215,-0.36409 6.89377,-0.158172 3.44039,0.637312 7.55359,2.610903 8.77278,4.209341 0.22974,0.301199 0.80205,1.655588 1.27181,3.009753 2.33914,6.743029 5.09864,12.189002 8.48973,16.754775 1.68903,2.274115 5.34869,5.906549 7.2569,7.202916 1.92308,1.30646 4.40399,2.484544 6.38107,3.030106 l 1.57394,0.434323 150.5201,0.04067 573.1457,0.04067 4.8048,0.799327 -3.543,0.799326 -574.2716,0 c -150.2371,0 -150.38605,3.17e-4 -152.2801,0.323774 -9.86162,1.684122 -23.66589,7.763662 -34.7759,15.31565 -5.08718,3.458006 -9.07573,6.721474 -13.12,10.73494 -1.452,1.440943 -2.95307,2.836514 -3.33572,3.101271 -2.79804,1.935983 -9.61242,4.216376 -14.92801,4.995573 -1.75718,0.25758 -5.12968,0.435381 -5.97626,0.315073 z m 5.1518,-1.752595 c 8.03117,-1.04767 16.85181,-4.805404 16.84759,-7.177346 -0.003,-1.70553 -4.13626,-3.935998 -9.37636,-5.059879 -2.29311,-0.491821 -6.70633,-0.618082 -8.55219,-0.244675 -3.69008,0.746483 -6.67002,2.910066 -8.16502,5.928215 -1.39739,2.821124 -0.84648,5.162467 1.43948,6.117602 1.6662,0.69618 4.56944,0.858359 7.8065,0.436083 z m -11.59091,-3.393685 c -0.10084,-0.696773 0.3921,-2.749111 0.91693,-3.81762 2.06712,-4.208451 6.49951,-6.813024 12.00918,-7.056864 6.36323,-0.281615 14.39355,2.319357 16.39299,5.309593 0.264,0.394821 0.53003,0.719439 0.59118,0.721374 0.0611,0.0019 0.85315,-0.690426 1.76,-1.538578 11.78433,-11.021529 29.70029,-20.663672 44.83771,-24.131099 0.43589,-0.09985 0.37839,-0.143897 -0.81694,-0.625861 -6.3785,-2.571843 -12.44347,-9.099097 -17.02027,-18.317602 -1.13718,-2.290479 -3.17334,-7.162127 -3.43703,-8.223344 -0.0601,-0.242 -0.13342,-0.44 -0.16286,-0.44 -0.0294,0 -0.29715,0.143757 -0.59495,0.319461 -1.42976,0.843579 -4.88564,1.28384 -7.55685,0.962702 -3.85287,-0.463202 -6.10667,-1.833906 -6.88919,-4.189834 -0.25788,-0.776404 -0.25359,-1.781029 0.0122,-2.85233 l 0.0992,-0.4 -2.2111,0.114723 c -3.45049,0.179028 -15.7997,0.159673 -19.1711,-0.03005 C 794.49226,11.082692 780.37462,8.4739903 766.3818,3.7823666 l -2.57823,-0.8644463 0.0774,0.6869833 c 0.0953,0.8459022 -0.33542,2.8472007 -0.89225,4.1453273 -1.22861,2.8642331 -3.38396,5.5908451 -5.6377,7.1318981 -1.62261,1.109499 -3.02908,1.578006 -5.12509,1.7072 -3.15191,0.194279 -6.31859,-1.093664 -7.83461,-3.186472 l -0.45177,-0.623637 -1.44408,2.850497 c -3.21503,6.346162 -6.50148,11.461253 -10.31245,16.050497 -1.53337,1.846536 -5.16184,5.450991 -6.82304,6.777916 -3.59321,2.870151 -7.65859,5.14657 -11.33244,6.345611 -1.11515,0.363957 -2.13556,0.699441 -2.26756,0.745519 -0.13199,0.04608 1.452,0.428176 3.52,0.849107 22.3032,4.539703 54.27312,16.905833 74.00978,28.62736 1.49062,0.885274 2.75175,1.610692 2.8025,1.612039 0.0508,0.0013 0.0636,-0.195551 0.0286,-0.437551 z m 9.15911,-28.13878 C 788.6985,47.046731 780.8474,43.304598 777.9357,36.934661 c -1.42806,-3.124185 -1.5893,-6.869828 -0.47959,-11.140876 0.22067,-0.849321 0.42165,-1.564647 0.44662,-1.589615 0.0652,-0.06521 1.1119,0.296953 1.27127,0.43987 0.0737,0.06608 -0.055,0.866255 -0.2859,1.778163 -0.80497,3.178651 -0.8357,6.102342 -0.0891,8.480169 0.47173,1.502415 0.4894,1.517585 1.22587,1.052672 7.30633,-4.612285 17.65637,-3.470607 23.76732,2.621692 1.89232,1.886552 3.21529,4.047556 4.0549,6.623481 l 0.36505,1.12 0.69395,-0.05608 c 1.43134,-0.115682 4.36374,-0.98007 5.88779,-1.735559 1.22646,-0.607971 1.78115,-1.009036 2.8247,-2.042441 1.83592,-1.818053 2.62477,-3.544072 2.8813,-6.304382 l 0.1061,-1.141533 h 0.78253 0.78254 l -0.0938,0.84 c -0.30029,2.687681 -0.66602,3.949581 -1.61298,5.565318 -1.92542,3.285223 -5.82937,5.498205 -11.13266,6.310623 -1.62085,0.248301 -6.47567,0.432375 -8.05152,0.30528 z m 5.36,-1.554796 c 0,-0.02947 -0.14971,-0.515466 -0.33268,-1.08 -2.51534,-7.760822 -11.94491,-12.443241 -20.60547,-10.232004 -1.91387,0.488654 -5.22935,2.030457 -5.41682,2.518992 -0.0444,0.115851 0.21017,0.587726 0.56584,1.048612 3.5816,4.641213 12.65027,7.715659 22.94913,7.780183 1.562,0.0098 2.84,-0.0063 2.84,-0.03578 z M 844.72001,17.51744 c 1.99889,-0.620034 2.27484,-1.344686 0.96168,-2.525334 -2.26535,-2.036745 -7.92572,-3.862067 -10.31693,-3.326939 -2.66579,0.59658 -2.46393,3.868455 0.32485,5.265188 0.62827,0.314661 2.04261,0.728076 3.0304,0.885792 1.0902,0.174065 5.12314,-0.02671 6,-0.298707 z m -90.72683,-2.745191 c 2.53444,-0.697359 4.92042,-2.815546 6.77165,-6.0116196 1.35555,-2.3403085 1.90937,-4.8913814 1.31248,-6.0456503 -0.7341,-1.4195964 -3.95561,-1.4804634 -7.94866,-0.1501818 -5.2218,1.7396407 -9.08863,5.1137596 -9.08863,7.9305587 0,1.094102 0.16884,1.508023 0.96941,2.37654 1.79526,1.947632 5.02123,2.715501 7.98375,1.900353 z"
       id="path1"
       sodipodi:nodetypes="sssscccccsssssssssssssssscccccsssssssssssssssssssssssssssssscssscssssscsssssssssssssssssssscsssscccssssssssssssssssssssssssss" />
  </g>
</svg>
