<?xml version="1.0" encoding="UTF-8" standalone="no"?>
<!-- Created with Inkscape (http://www.inkscape.org/) -->
<svg
   xmlns:svg="http://www.w3.org/2000/svg"
   xmlns="http://www.w3.org/2000/svg"
   version="1.0"
   width="151"
   height="50"
   id="svg3754">
  <defs
     id="defs3757" />
  <path
     d="M 5.7759563,34.528689 L 143.78005,34.528689"
     style="fill:none;fill-rule:evenodd;stroke:#000000;stroke-width:1px;stroke-linecap:butt;stroke-linejoin:miter;stroke-opacity:1"
     id="path3763" />
  <path
     d="M 35.688633,6.6803279 L 14.026587,19.186916 L 14.026587,-5.8262604 L 35.688633,6.6803279 z "
     transform="matrix(0.6627535,0,0,0.3285731,13.952813,32.127429)"
     style="opacity:1;fill:#000000;fill-opacity:1;fill-rule:nonzero;stroke:none;stroke-width:1;stroke-linecap:square;stroke-linejoin:miter;stroke-miterlimit:4;stroke-dasharray:none;stroke-dashoffset:0;stroke-opacity:1"
     id="path3765" />
  <path
     d="M 35.688633,6.6803279 L 14.026587,19.186916 L 14.026587,-5.8262604 L 35.688633,6.6803279 z "
     transform="matrix(0.6627535,0,0,0.3285731,59.952813,32.127429)"
     style="opacity:1;fill:#000000;fill-opacity:1;fill-rule:nonzero;stroke:none;stroke-width:1;stroke-linecap:square;stroke-linejoin:miter;stroke-miterlimit:4;stroke-dasharray:none;stroke-dashoffset:0;stroke-opacity:1"
     id="path3767" />
  <path
     d="M 35.688633,6.6803279 L 14.026587,19.186916 L 14.026587,-5.8262604 L 35.688633,6.6803279 z "
     transform="matrix(0.6627535,0,0,0.3285731,105.95281,32.127429)"
     style="opacity:1;fill:#000000;fill-opacity:1;fill-rule:nonzero;stroke:none;stroke-width:1;stroke-linecap:square;stroke-linejoin:miter;stroke-miterlimit:4;stroke-dasharray:none;stroke-dashoffset:0;stroke-opacity:1"
     id="path3769" />
  <path
     d="M 51.158292,34.676009 C 51.158292,34.676009 47.058813,29.453096 50.098189,28.398239 C 62.008327,24.264663 49.114133,15.383211 60.676934,15.639081 C 69.494232,15.8355 64.773224,9.3620219 70.54918,9.568306 C 76.325137,9.7745902 74.085582,13.840954 77.97541,13.693989 C 82.225035,13.53343 82.307377,11.218579 84.163934,11.424863 C 86.020492,11.631148 88.289617,13.693989 87.877049,16.581967 C 87.464481,19.469945 89.114754,20.501366 93.85929,20.913934 C 98.603825,21.326503 96.658201,25.247323 96.658201,25.247323 C 93.299045,31.080507 95.59959,32.69165 97.984973,34.49894"
     style="fill:none;fill-rule:evenodd;stroke:#000000;stroke-width:1px;stroke-linecap:butt;stroke-linejoin:miter;stroke-opacity:1"
     id="path3771" />
</svg>
