<?xml version="1.0" encoding="UTF-8" standalone="no"?>
<!-- Created with Inkscape (http://www.inkscape.org/) -->

<svg
   xmlns:dc="http://purl.org/dc/elements/1.1/"
   xmlns:cc="http://creativecommons.org/ns#"
   xmlns:rdf="http://www.w3.org/1999/02/22-rdf-syntax-ns#"
   xmlns:svg="http://www.w3.org/2000/svg"
   xmlns="http://www.w3.org/2000/svg"
   xmlns:sodipodi="http://sodipodi.sourceforge.net/DTD/sodipodi-0.dtd"
   xmlns:inkscape="http://www.inkscape.org/namespaces/inkscape"
   width="201.96851"
   height="170.07874"
   id="svg2"
   version="1.1"
   inkscape:version="0.48.5 r10040"
   sodipodi:docname="Feynman diagram - Vertex.svg">
  <defs
     id="defs4" />
  <sodipodi:namedview
     id="base"
     pagecolor="#ffffff"
     bordercolor="#666666"
     borderopacity="1.0"
     inkscape:pageopacity="0.0"
     inkscape:pageshadow="2"
     inkscape:zoom="2.8"
     inkscape:cx="201.5578"
     inkscape:cy="98.087946"
     inkscape:document-units="px"
     inkscape:current-layer="layer1"
     showgrid="true"
     units="mm"
     inkscape:window-width="1920"
     inkscape:window-height="1057"
     inkscape:window-x="-8"
     inkscape:window-y="-8"
     inkscape:window-maximized="1">
    <inkscape:grid
       type="xygrid"
       id="grid2985"
       empspacing="8"
       visible="true"
       enabled="true"
       snapvisiblegridlinesonly="true"
       units="mm"
       spacingx="1mm"
       spacingy="1mm" />
  </sodipodi:namedview>
  <metadata
     id="metadata7">
    <rdf:RDF>
      <cc:Work
         rdf:about="">
        <dc:format>image/svg+xml</dc:format>
        <dc:type
           rdf:resource="http://purl.org/dc/dcmitype/StillImage" />
        <dc:title />
      </cc:Work>
    </rdf:RDF>
  </metadata>
  <g
     inkscape:label="Ebene 1"
     inkscape:groupmode="layer"
     id="layer1"
     transform="translate(0,-882.28343)">
    <path
       style="fill:none;stroke:#000000;stroke-width:1px;stroke-linecap:butt;stroke-linejoin:miter;stroke-opacity:1"
       d="m 198.42524,967.32272 c 0,0 -1.57972,-7.45267 -3.54335,-10.62983 -0.87804,-1.42096 -1.87299,-3.54332 -3.5433,-3.54331 -1.67025,-6e-5 -2.66517,2.12237 -3.54325,3.54324 -1.9636,3.17721 -3.54332,10.62992 -3.54332,10.62992 l 0,0 c 0,0 -1.57971,7.45273 -3.54332,10.62993 -0.87819,1.4209 -1.873,3.5433 -3.54324,3.54324 -1.67032,2e-5 -2.66526,-2.12233 -3.5433,-3.54329 -1.96364,-3.17718 -3.54336,-10.62985 -3.54336,-10.62985 l 0,0 c 0,0 -1.57978,-7.45272 -3.54329,-10.62991 -0.87817,-1.42094 -1.87299,-3.54332 -3.54342,-3.54328 -1.67024,-6e-5 -2.66505,2.12235 -3.54324,3.54324 -1.96361,3.1772 -3.54333,10.62992 -3.54333,10.62992 l 0,0 c 0,0 -1.57972,7.45273 -3.54332,10.62993 -0.87807,1.42088 -1.87287,3.54327 -3.54327,3.54327 -1.6703,0 -2.6651,-2.1224 -3.5433,-3.5433 -1.9636,-3.1772 -3.54333,-10.62987 -3.54333,-10.62987 0,0 -1.57965,-7.45274 -3.54329,-10.62991 -0.87811,-1.42089 -1.87298,-3.54332 -3.5433,-3.5433 -1.67031,1e-5 -2.66517,2.12237 -3.54332,3.5433 -1.96357,3.17718 -3.54329,10.62988 -3.54329,10.62988 l 0,0 c 0,0 -1.57971,7.4527 -3.5433,10.6299 -0.87815,1.42091 -1.87298,3.5433 -3.54331,3.5433 -1.67033,0 -2.66516,-2.1224 -3.54331,-3.5433 -1.96359,-3.1772 -3.5433,-10.6299 -3.5433,-10.6299 l 0,0 c 0,0 -1.57972,-7.4527 -3.54331,-10.6299 -0.87816,-1.4209 -1.87298,-3.5433 -3.54331,-3.5433 -1.67033,0 -2.66516,2.1224 -3.5433,3.5433 -1.96359,3.1772 -3.5433,10.6299 -3.5433,10.6299 l 0,0 c 0,0 -1.57972,7.4527 -3.54331,10.6299 -0.87815,1.4209 -1.87298,3.5433 -3.54331,3.5433 -1.67033,0 -2.66517,-2.1224 -3.54331,-3.5433 -1.96359,-3.1772 -3.54332,-10.6299 -3.54332,-10.6299"
       id="path2987-1-7-4"
       inkscape:connector-curvature="0"
       sodipodi:nodetypes="caaaaaaaaccaaaaaaaacaaaaaaaaccaaaaaaaac"
       inkscape:transform-center-x="-56.692909" />
    <g
       id="g3028"
       transform="matrix(0.70710678,-0.70710678,0.70710678,0.70710678,-706.69749,335.93759)"
       inkscape:transform-center-x="40.087876"
       inkscape:transform-center-y="40.088011">
      <path
         inkscape:connector-curvature="0"
         id="path2984"
         d="m -4e-7,1006.2993 113.3858204,0"
         style="fill:none;stroke:#000000;stroke-width:1px;stroke-linecap:butt;stroke-linejoin:miter;stroke-opacity:1" />
      <path
         inkscape:connector-curvature="0"
         id="path2986"
         d="m 53.149606,1002.7559 0,7.0866 10.629922,-3.5433 z"
         style="fill:#000000;stroke:#000000;stroke-width:1px;stroke-linecap:butt;stroke-linejoin:miter;stroke-opacity:1" />
    </g>
    <g
       id="g3032"
       transform="matrix(0,1,-1,0,1022.9043,870.54189)"
       inkscape:transform-center-x="40.58797"
       inkscape:transform-center-y="-40.587913">
      <path
         inkscape:connector-curvature="0"
         id="path2984-8"
         d="M 16.60505,1018.0408 96.780932,937.86488"
         style="fill:none;stroke:#000000;stroke-width:1px;stroke-linecap:butt;stroke-linejoin:miter;stroke-opacity:1" />
      <path
         inkscape:connector-curvature="0"
         id="path2986-8"
         d="m 61.703911,977.95274 -5.011004,-5.01101 -5.010999,10.02199 z"
         style="fill:#000000;stroke:#000000;stroke-width:1px;stroke-linecap:butt;stroke-linejoin:miter;stroke-opacity:1" />
    </g>
  </g>
</svg>
