<?xml version="1.0" encoding="UTF-8" standalone="no"?>
<!-- Created with Inkscape (http://www.inkscape.org/) -->

<svg
   width="1500mm"
   height="700mm"
   viewBox="0 0 1500 700"
   version="1.1"
   id="svg1"
   inkscape:version="1.4.3 (0d15f75042, 2025-12-25)"
   sodipodi:docname="consumption-gal.svg"
   xmlns:inkscape="http://www.inkscape.org/namespaces/inkscape"
   xmlns:sodipodi="http://sodipodi.sourceforge.net/DTD/sodipodi-0.dtd"
   xmlns="http://www.w3.org/2000/svg"
   xmlns:svg="http://www.w3.org/2000/svg">
  <sodipodi:namedview
     id="namedview1"
     pagecolor="#ffffff"
     bordercolor="#000000"
     borderopacity="0.25"
     inkscape:showpageshadow="2"
     inkscape:pageopacity="0.0"
     inkscape:pagecheckerboard="0"
     inkscape:deskcolor="#d1d1d1"
     inkscape:document-units="mm"
     inkscape:zoom="0.17489024"
     inkscape:cx="3450.7357"
     inkscape:cy="1357.9946"
     inkscape:window-width="1536"
     inkscape:window-height="804"
     inkscape:window-x="0"
     inkscape:window-y="0"
     inkscape:window-maximized="1"
     inkscape:current-layer="svg1" />
  <defs
     id="defs1">
    <inkscape:path-effect
       effect="envelope"
       id="path-effect26"
       is_visible="true"
       lpeversion="1"
       yy="true"
       xx="true"
       bendpath1="M 31.743141,46.387074 C 139.00397,10.745987 274.86036,8.146447 354.39617,42.633335"
       bendpath2="m 354.39617,42.633335 c 35.06522,79.132155 37.78924,156.889095 0,228.709955"
       bendpath3="m 74.885672,271.34329 c 113.936988,15.40642 231.190198,33.27307 279.510498,0"
       bendpath4="M 64.8757,54.520177 C 105.25163,181.36468 -1.250211,216.75951 31.743141,287.60949"
       bendpath1-nodetypes="cc"
       bendpath2-nodetypes="cc"
       bendpath4-nodetypes="cc"
       bendpath3-nodetypes="cc" />
  </defs>
  <g
     id="g25"
     style="display:inline;fill:#444444;fill-opacity:1;stroke:none">
    <path
       style="display:inline;fill:#444444;fill-opacity:1;stroke:none;stroke-width:4.53898;stroke-linecap:round;stroke-linejoin:round;stroke-dasharray:none;stroke-dashoffset:0;stroke-opacity:1"
       d="m 440.51986,184.89303 c -8.37482,-30.3538 -25.08596,-68.82164 -42.02891,-96.747555 -14.50067,-23.900493 -16.88758,-21.725331 38.36253,-34.95926 26.14536,-6.262532 49.14304,-11.837206 51.10597,-12.388175 6.82684,-1.916194 43.13273,79.96689 57.60977,129.93113 2.47513,8.54233 4.11568,15.91605 3.64569,16.38606 -0.92707,0.92705 -54.95837,6.03917 -86.14903,8.15089 l -19.32305,1.30825 z"
       id="path34" />
    <path
       style="display:inline;fill:#444444;fill-opacity:1;stroke:none;stroke-width:4.53898;stroke-linecap:round;stroke-linejoin:round;stroke-dasharray:none;stroke-dashoffset:0;stroke-opacity:1"
       d="M 547.86445,165.52864 C 538.50549,134.28482 528.93697,109.32485 513.2115,75.13461 505.61638,58.621347 499.40218,43.595303 499.40218,41.7434 c 0,-4.142116 0.13081,-4.182478 37.02883,-11.434253 40.85455,-8.029376 75.22211,-12.875054 77.10981,-10.87218 6.24755,6.628682 49.98204,142.242343 49.98767,155.003793 0.002,2.69676 -3.71973,3.4679 -22.51609,4.66635 -12.38464,0.78963 -36.94589,2.94317 -54.58054,4.78566 l -32.06302,3.34997 z"
       id="path35" />
    <path
       style="display:inline;fill:#444444;fill-opacity:1;stroke:none;stroke-width:4.53898;stroke-linecap:round;stroke-linejoin:round;stroke-dasharray:none;stroke-dashoffset:0;stroke-opacity:1"
       d="M 662.66466,153.72469 C 657.6927,133.67504 635.35879,64.221742 623.11152,30.723537 c -2.49081,-6.81278 -4.09819,-12.794531 -3.57192,-13.292778 3.56829,-3.378342 119.93692,-8.0403016 123.10421,-4.931806 2.96272,2.907732 40.34002,159.389227 38.41623,160.830937 -0.24142,0.18094 -25.72122,0.91657 -56.6217,1.63475 l -56.18272,1.30577 z"
       id="path36" />
    <path
       style="display:inline;fill:#444444;fill-opacity:1;stroke:none;stroke-width:4.53898;stroke-linecap:round;stroke-linejoin:round;stroke-dasharray:none;stroke-dashoffset:0;stroke-opacity:1"
       d="m 874.69426,181.1218 c -13.21027,-1.40255 -38.23455,-3.21486 -55.60951,-4.02735 -17.37496,-0.81248 -32.10177,-2.30397 -32.72628,-3.31443 -0.62448,-1.01045 -4.57672,-17.76431 -8.78272,-37.2308 C 773.36973,117.08272 765.35387,82.949327 759.76269,60.697206 754.17152,38.4451 749.5969,18.265774 749.5969,15.854272 c 0,-4.356861 0.16606,-4.376146 26.3106,-3.052927 23.75824,1.202444 62.30505,5.063671 88.73741,8.888817 8.30612,1.202009 10.20615,2.272596 11.40694,6.42736 1.35066,4.673429 25.71319,151.348098 25.67914,154.601558 -0.008,0.82565 -0.69122,1.37779 -1.51685,1.227 -0.82564,-0.1508 -12.30958,-1.42173 -25.51988,-2.82428 z"
       id="path37" />
    <path
       style="display:inline;fill:#444444;fill-opacity:1;stroke:none;stroke-width:4.53898;stroke-linecap:round;stroke-linejoin:round;stroke-dasharray:none;stroke-dashoffset:0;stroke-opacity:1"
       d="m 956.80546,189.89057 c -27.49542,-3.25013 -50.19457,-6.11222 -50.44252,-6.36019 -0.24788,-0.24798 -5.90833,-33.29496 -12.57853,-73.43774 -6.6702,-40.142794 -12.53883,-75.428897 -13.04138,-78.413561 -0.50257,-2.98468 -0.23469,-5.846266 0.59493,-6.359091 2.73303,-1.689105 120.54514,22.217017 123.35994,25.031883 0.4576,0.457481 1.8548,12.525816 3.1051,26.818538 1.9287,22.047698 11.2843,91.095131 15.2505,112.554131 l 1.2023,6.50506 -8.7293,-0.21486 c -4.8012,-0.11817 -31.22562,-2.87404 -58.72104,-6.12417 z"
       id="path38" />
    <path
       style="display:inline;fill:#444444;fill-opacity:1;stroke:none;stroke-width:4.53898;stroke-linecap:round;stroke-linejoin:round;stroke-dasharray:none;stroke-dashoffset:0;stroke-opacity:1"
       d="m 1055.8596,199.89212 c -14.8482,-1.07023 -27.1842,-2.13339 -27.4133,-2.36255 -0.8032,-0.80317 -10.4968,-64.58641 -13.4299,-88.36774 -4.7986,-38.906141 -5.908,-57.044395 -3.489,-57.044395 1.1796,0 23.1154,4.891855 48.7461,10.870799 25.6309,5.978937 51.6598,11.872287 57.8422,13.096335 l 11.2407,2.22555 1.382,17.427412 c 1.7065,21.519999 7.2795,49.066939 16.1624,79.890339 3.726,12.92874 6.3031,23.97903 5.7268,24.55621 -1.8942,1.89752 -69.2093,1.69442 -96.768,-0.29196 z"
       id="path39" />
    <path
       style="display:inline;fill:#444444;fill-opacity:1;stroke:none;stroke-width:4.53898;stroke-linecap:round;stroke-linejoin:round;stroke-dasharray:none;stroke-dashoffset:0;stroke-opacity:1"
       d="m 469.45459,331.9666 c -11.51732,-0.99806 -21.29549,-2.16957 -21.72926,-2.60337 -0.43379,-0.43377 0.20778,-8.19198 1.42539,-17.24046 3.15482,-23.44241 2.73659,-64.82369 -0.90293,-89.3346 -1.71433,-11.54549 -2.63853,-21.47024 -2.05377,-22.05501 0.58476,-0.58477 13.02099,-1.78137 27.63608,-2.65914 14.61506,-0.87776 37.63311,-2.676 51.15117,-3.9961 13.51809,-1.32009 25.10137,-1.87713 25.74062,-1.23787 0.63925,0.63928 2.40292,7.08078 3.91924,14.31446 5.66776,27.03871 8.81091,60.30693 8.81091,93.25859 v 33.92396 l -36.52843,-0.27789 c -20.09064,-0.15286 -45.95171,-1.0945 -57.46902,-2.09257 z"
       id="path40" />
    <path
       style="display:inline;fill:#444444;fill-opacity:1;stroke:none;stroke-width:4.53898;stroke-linecap:round;stroke-linejoin:round;stroke-dasharray:none;stroke-dashoffset:0;stroke-opacity:1"
       d="m 567.45515,302.06966 c 0,-33.51727 -3.69077,-71.85852 -9.28472,-96.45315 -1.71031,-7.51969 -2.79787,-13.9468 -2.41677,-14.28244 0.57211,-0.50386 70.5444,-7.35311 101.18241,-9.90426 l 8.41784,-0.70093 2.03458,10.25231 c 8.03793,40.50341 12.1539,79.67952 12.1539,115.68168 v 25.67264 l -15.51207,0.005 c -8.53164,0.002 -33.75126,0.59619 -56.04364,1.31847 l -40.53153,1.31321 z"
       id="path41" />
    <path
       style="display:inline;fill:#444444;fill-opacity:1;stroke:none;stroke-width:4.53898;stroke-linecap:round;stroke-linejoin:round;stroke-dasharray:none;stroke-dashoffset:0;stroke-opacity:1"
       d="m 682.86158,294.3059 c -1.29342,-37.44476 -4.59277,-67.97209 -10.45023,-96.69042 -1.76479,-8.65261 -2.71665,-16.22408 -2.11521,-16.8255 0.60141,-0.60142 26.08757,-1.20153 56.6359,-1.33356 l 55.54245,-0.24007 2.53888,15.01168 c 4.84911,28.67134 8.58891,67.24677 9.89639,102.07942 l 1.31479,35.02727 h -56.04198 -56.04194 z"
       id="path42" />
    <path
       style="display:inline;fill:#444444;fill-opacity:1;stroke:none;stroke-width:4.53898;stroke-linecap:round;stroke-linejoin:round;stroke-dasharray:none;stroke-dashoffset:0;stroke-opacity:1"
       d="m 840.1674,333.76907 -40.53154,-1.9078 -0.0385,-10.27108 C 799.49588,294.463 795.16165,238.06867 790.9995,209.72048 l -4.63138,-31.54418 9.13574,0.95423 c 5.02467,0.52483 18.59313,1.44741 30.15211,2.05018 24.66216,1.28606 67.23338,4.82302 73.25647,6.08639 3.82797,0.80295 4.50176,3.40914 7.55663,29.22981 3.90059,32.96905 8.36973,112.04938 6.59387,116.67721 -1.39572,3.63718 -7.24908,3.68495 -72.89566,0.59495 z"
       id="path43" />
    <path
       style="display:inline;fill:#444444;fill-opacity:1;stroke:none;stroke-width:4.53898;stroke-linecap:round;stroke-linejoin:round;stroke-dasharray:none;stroke-dashoffset:0;stroke-opacity:1"
       d="m 944.7488,338.92591 c -32.02335,-0.92481 -29.02144,2.6066 -29.02943,-34.14996 -0.005,-31.12698 -1.94271,-59.09998 -6.71571,-97.03739 -1.3504,-10.73336 -1.96648,-19.51855 -1.36908,-19.52264 6.44703,-0.0442 115.52142,12.84967 116.52002,13.77402 2.6801,2.48119 9.8886,70.11668 11.0654,103.82494 l 1.2054,34.52685 -35.8305,-0.41891 c -19.70684,-0.23038 -44.83753,-0.679 -55.8461,-0.99691 z"
       id="path44" />
    <path
       style="display:inline;fill:#444444;fill-opacity:1;stroke:none;stroke-width:4.53898;stroke-linecap:round;stroke-linejoin:round;stroke-dasharray:none;stroke-dashoffset:0;stroke-opacity:1"
       d="m 1039.1869,308.03631 c -1.1984,-30.68942 -5.3762,-74.50482 -9.1929,-96.41292 l -1.6771,-9.62569 31.2729,1.61946 c 17.1999,0.89069 45.8426,1.5349 63.6503,1.43156 l 32.3777,-0.18789 8.2914,29.83371 c 8.8057,31.68411 17.8997,74.56578 17.9774,84.77067 l 0.047,6.1445 -28.5222,4.38406 c -32.0456,4.92563 -55.7416,7.41249 -89.7487,9.41904 l -23.1968,1.36873 z"
       id="path45" />
    <path
       style="display:inline;fill:#444444;fill-opacity:1;stroke:none;stroke-width:4.53898;stroke-linecap:round;stroke-linejoin:round;stroke-dasharray:none;stroke-dashoffset:0;stroke-opacity:1"
       d="m 479.38661,454.34673 c -12.65986,-0.86084 -33.15082,-2.65271 -45.53547,-3.98195 -26.95959,-2.89358 -26.41462,-1.71813 -14.43285,-31.13088 9.43723,-23.16648 20.48827,-57.26017 23.92299,-73.80516 l 2.40989,-11.60834 13.31498,1.27129 c 7.32326,0.69923 33.3556,1.85135 57.84966,2.56028 44.31278,1.28256 44.53466,1.31116 44.53466,5.74165 0,9.12008 -8.39624,52.96734 -15.70477,82.01432 l -7.55424,30.02338 -17.89349,0.24034 c -9.84138,0.13215 -28.25151,-0.46402 -40.91136,-1.32486 z"
       id="path46" />
    <path
       style="display:inline;fill:#444444;fill-opacity:1;stroke:none;stroke-width:4.53898;stroke-linecap:round;stroke-linejoin:round;stroke-dasharray:none;stroke-dashoffset:0;stroke-opacity:1"
       d="m 543.43647,453.65738 c 0,-1.52609 3.55673,-17.51354 7.9039,-35.52765 4.34714,-18.01413 9.44638,-43.1999 11.33164,-55.96841 l 3.42776,-23.21544 34.20379,-1.29751 c 18.81208,-0.71362 44.30277,-1.30026 56.64599,-1.30362 l 22.44224,-0.005 -1.10342,13.51052 c -1.21028,14.81961 -12.20577,94.68325 -14.0444,102.00893 l -1.14801,4.57403 H 603.2662 c -49.66618,0 -59.82973,-0.47137 -59.82973,-2.77473 z"
       id="path47" />
    <path
       style="display:inline;fill:#444444;fill-opacity:1;stroke:none;stroke-width:4.53898;stroke-linecap:round;stroke-linejoin:round;stroke-dasharray:none;stroke-dashoffset:0;stroke-opacity:1"
       d="m 677.04044,456.96242 c -5.22908,-0.41232 -9.5074,-1.01578 -9.5074,-1.34101 0,-0.32522 2.66381,-17.43186 5.91957,-38.01469 3.25576,-20.58287 6.52723,-46.61292 7.26995,-57.84457 0.74271,-11.23166 2.24234,-21.54706 3.33252,-22.92313 1.48639,-1.87621 13.81009,-2.49645 49.27407,-2.47991 26.01054,0.0108 50.46898,0.54774 54.35208,1.19034 l 7.06018,1.1683 -0.68555,14.32173 c -0.37704,7.87695 -2.87859,34.2462 -5.55899,58.59831 -2.68042,24.35212 -4.87348,45.29342 -4.87348,46.53622 0,1.62628 -13.60484,2.15851 -48.53777,1.89887 -26.69579,-0.19835 -52.81611,-0.69814 -58.04518,-1.11046 z"
       id="path48" />
    <path
       style="display:inline;fill:#444444;fill-opacity:1;stroke:none;stroke-width:4.53898;stroke-linecap:round;stroke-linejoin:round;stroke-dasharray:none;stroke-dashoffset:0;stroke-opacity:1"
       d="m 823.31527,460.55008 c -18.35072,-0.61361 -34.02831,-1.78156 -34.83906,-2.59543 -0.81075,-0.8139 0.54104,-18.8279 3.004,-40.03116 2.46296,-21.20326 4.99719,-48.36772 5.63162,-60.36548 l 1.15356,-21.81406 35.21211,1.33371 c 19.36666,0.73353 44.89463,1.90345 56.72883,2.59982 l 21.51675,1.2661 -0.0399,13.2096 c -0.0369,12.26377 -1.92832,32.58546 -8.07561,86.76683 l -2.44124,21.51675 -22.2431,-0.38552 c -12.2337,-0.21207 -37.25732,-0.88755 -55.60806,-1.50116 z"
       id="path49" />
    <path
       style="display:inline;fill:#444444;fill-opacity:1;stroke:none;stroke-width:4.53898;stroke-linecap:round;stroke-linejoin:round;stroke-dasharray:none;stroke-dashoffset:0;stroke-opacity:1"
       d="m 919.22893,463.07319 c -15.9938,-0.96992 -14.98349,3.55186 -9.57535,-42.85689 2.12874,-18.2674 4.50321,-43.79733 5.2766,-56.7332 l 1.40613,-23.51974 5.46363,1.09272 c 3.00498,0.60101 30.02212,1.73031 60.03804,2.50957 l 54.57442,1.41685 -1.3269,28.20337 c -1.1574,24.60042 -7.952,86.6676 -9.6625,88.26485 -1.1296,1.05488 -92.52689,2.4513 -106.19407,1.62247 z"
       id="path50" />
    <path
       style="display:inline;fill:#444444;fill-opacity:1;stroke:none;stroke-width:4.53898;stroke-linecap:round;stroke-linejoin:round;stroke-dasharray:none;stroke-dashoffset:0;stroke-opacity:1"
       d="m 1030.6401,454.07775 c 3.1156,-19.48398 7.3296,-61.23525 8.4997,-84.21304 1.2299,-24.153 1.5243,-25.52092 5.4947,-25.53966 23.7579,-0.11223 91.2673,-7.03845 123.6543,-12.68677 l 15.3781,-2.6819 0.6344,18.2024 c 1.1324,32.48814 -3.6384,87.60231 -8.2254,95.02413 -2.4356,3.94114 -89.4071,15.83183 -136.9339,18.72157 l -9.6877,0.58903 z"
       id="path51" />
    <path
       style="display:inline;fill:#444444;fill-opacity:1;stroke:none;stroke-width:4.53898;stroke-linecap:round;stroke-linejoin:round;stroke-dasharray:none;stroke-dashoffset:0;stroke-opacity:1"
       d="m 377.30713,540.81769 c 0,-9.75172 7.6057,-36.2511 18.36911,-64.00066 9.49578,-24.48147 10.69865,-26.56106 14.77188,-25.53875 7.37112,1.85003 66.02927,6.84431 97.12815,8.26972 l 29.19043,1.33791 -4.77625,19.28985 c -2.88984,11.67134 -5.24636,28.57835 -5.96662,42.80812 l -1.19043,23.51832 h -73.76314 -73.76313 z"
       id="path52" />
    <path
       style="display:inline;fill:#444444;fill-opacity:1;stroke:none;stroke-width:4.53898;stroke-linecap:round;stroke-linejoin:round;stroke-dasharray:none;stroke-dashoffset:0;stroke-opacity:1"
       d="m 573.66751,547.00379 -44.82737,-0.57975 1.22864,-23.47921 c 1.07754,-20.59197 7.00312,-55.06789 10.4132,-60.5855 0.71844,-1.16246 25.13721,-1.92412 61.687,-1.92412 h 60.49786 l -2.69385,22.51751 c -1.59586,13.33926 -2.25489,31.28789 -1.6169,44.03428 l 1.07698,21.51675 -20.4691,-0.46009 c -11.258,-0.25299 -40.6414,-0.72099 -65.29646,-1.03987 z"
       id="path53" />
    <path
       style="display:inline;fill:#444444;fill-opacity:1;stroke:none;stroke-width:4.53898;stroke-linecap:round;stroke-linejoin:round;stroke-dasharray:none;stroke-dashoffset:0;stroke-opacity:1"
       d="m 731.5829,552.20867 c -19.26501,-0.9272 -42.35187,-2.21215 -51.3042,-2.85538 l -16.27694,-1.1696 -1.21467,-7.34581 c -2.79927,-16.92879 0.59035,-74.89208 4.6218,-79.03403 0.87456,-0.89851 26.70507,-0.9933 57.40113,-0.21073 l 55.81102,1.42306 v 45.74377 45.74376 l -7.00543,-0.30466 c -3.85301,-0.16767 -22.76773,-1.06328 -42.03271,-1.99048 z"
       id="path54" />
    <path
       style="display:inline;fill:#444444;fill-opacity:1;stroke:none;stroke-width:4.53898;stroke-linecap:round;stroke-linejoin:round;stroke-dasharray:none;stroke-dashoffset:0;stroke-opacity:1"
       d="m 819.89216,556.28431 c -18.03174,-0.89543 -33.34365,-2.18546 -34.02648,-2.86672 -1.9094,-1.90512 -2.81777,-55.72975 -1.25676,-74.46929 l 1.38853,-16.66918 19.32893,1.07333 c 10.63093,0.5903 36.29361,1.62715 57.02819,2.30409 l 37.69921,1.23076 -1.53992,19.29149 c -0.84698,10.61029 -1.46263,31.22575 -1.36811,45.8121 l 0.17198,26.52063 -22.32025,-0.2996 c -12.27613,-0.16471 -37.07348,-1.03222 -55.10521,-1.92761 z"
       id="path55" />
    <path
       style="display:inline;fill:#444444;fill-opacity:1;stroke:none;stroke-width:4.53898;stroke-linecap:round;stroke-linejoin:round;stroke-dasharray:none;stroke-dashoffset:0;stroke-opacity:1"
       d="m 900.60842,545.20046 c -1.32844,-12.40477 -0.43419,-36.63451 2.44506,-66.25084 l 1.21618,-12.50974 h 60.39183 60.39191 l -3.5677,25.51985 c -1.9623,14.03593 -4.176,34.75205 -4.9194,46.03584 l -1.3518,20.51595 h -56.59031 -56.59025 z"
       id="path56" />
    <path
       style="display:inline;fill:#444444;fill-opacity:1;stroke:none;stroke-width:4.53898;stroke-linecap:round;stroke-linejoin:round;stroke-dasharray:none;stroke-dashoffset:0;stroke-opacity:1"
       d="m 1020.6583,535.2221 c 0.8126,-13.06095 2.9892,-34.10523 4.8368,-46.76509 l 3.3592,-23.01792 8.9869,-0.5095 c 23.3144,-1.32181 76.1454,-7.15651 104.9508,-11.59084 17.5527,-2.70209 32.0993,-4.9129 32.3258,-4.9129 0.937,0 -7.413,29.97784 -18.2389,65.48125 l -11.5525,37.88578 -55.2538,2.43992 c -30.3895,1.34197 -58.7722,2.95664 -63.0729,3.58817 l -7.819,1.14827 z"
       id="path57" />
    <path
       style="display:inline;fill:#444444;fill-opacity:1;stroke:none;stroke-width:4.53898;stroke-linecap:round;stroke-linejoin:round;stroke-dasharray:none;stroke-dashoffset:0;stroke-opacity:1"
       d="m 391.73145,626.24725 c -8.65706,-20.79518 -14.1851,-41.97183 -15.70077,-60.14599 l -1.30066,-15.59596 h 75.40902 c 58.64399,0 75.55445,0.55623 76.06315,2.50196 0.35975,1.37607 4.48079,18.71456 9.15781,38.52998 4.67704,19.81543 8.84825,37.37911 9.26937,39.03037 0.66595,2.6112 -4.62212,2.92184 -40.59202,2.38442 -37.97411,-0.56733 -66.96074,1.43562 -98.93171,6.83613 l -7.22876,1.2211 z"
       id="path58" />
    <path
       style="display:inline;fill:#444444;fill-opacity:1;stroke:none;stroke-width:4.53898;stroke-linecap:round;stroke-linejoin:round;stroke-dasharray:none;stroke-dashoffset:0;stroke-opacity:1"
       d="m 660.5276,651.45869 c -16.77699,-3.79623 -81.29572,-14.37784 -97.5969,-16.00668 -12.50742,-1.2498 -13.62251,-1.75086 -14.73418,-6.62098 -0.66149,-2.89789 -4.60492,-19.22972 -8.76318,-36.293 -4.15825,-17.0633 -8.12828,-33.5011 -8.82225,-36.52843 l -1.2618,-5.5043 40.56968,0.008 c 22.31331,0.005 51.92634,0.58736 65.80674,1.29533 l 25.23706,1.2872 5.28503,31.23001 c 4.78328,28.265 9.29147,61.11575 9.29147,67.70588 0,2.94652 0.65327,2.97144 -15.01167,-0.57316 z"
       id="path59" />
    <path
       style="display:inline;fill:#444444;fill-opacity:1;stroke:none;stroke-width:4.53898;stroke-linecap:round;stroke-linejoin:round;stroke-dasharray:none;stroke-dashoffset:0;stroke-opacity:1"
       d="m 779.62028,674.35897 c -24.68848,-3.98415 -97.17147,-18.35414 -98.4622,-19.52047 -0.76266,-0.6891 -2.80527,-12.96207 -4.53917,-27.27323 -1.73389,-14.31112 -5.09464,-36.59685 -7.46832,-49.5238 -2.3737,-12.92695 -3.86991,-23.94943 -3.32496,-24.49441 1.31261,-1.31258 98.53288,2.85502 108.73126,4.66104 l 7.94672,1.40729 2.4035,17.96249 c 3.09251,23.1115 8.72408,82.3491 8.72408,91.76711 0,3.99212 -0.67554,7.15319 -1.50117,7.02444 -0.82563,-0.12865 -6.45503,-1.03338 -12.50974,-2.01046 z"
       id="path60" />
    <path
       style="display:inline;fill:#444444;fill-opacity:1;stroke:none;stroke-width:4.53898;stroke-linecap:round;stroke-linejoin:round;stroke-dasharray:none;stroke-dashoffset:0;stroke-opacity:1"
       d="m 832.66156,680.62426 c -8.80686,-0.77469 -20.14735,-2.02998 -25.20109,-2.78948 l -9.18863,-1.38103 -3.41191,-39.4559 c -1.87656,-21.70076 -4.6061,-48.0126 -6.06566,-58.47074 -1.45953,-10.45813 -2.40975,-19.2997 -2.1116,-19.64792 0.29818,-0.3482 20.97186,0.3273 45.94153,1.50117 24.96965,1.17385 49.7885,2.13429 55.15298,2.13429 11.78007,0 10.69106,-3.93006 14.9749,54.04206 1.66763,22.56757 3.59199,46.66137 4.27638,53.54168 l 1.24433,12.50976 -29.79937,-0.28769 c -16.38968,-0.15825 -37.005,-0.92144 -45.81186,-1.6962 z"
       id="path61" />
    <path
       style="display:inline;fill:#444444;fill-opacity:1;stroke:none;stroke-width:4.53898;stroke-linecap:round;stroke-linejoin:round;stroke-dasharray:none;stroke-dashoffset:0;stroke-opacity:1"
       d="m 910.96255,672.18483 c -0.68363,-5.82622 -2.57376,-28.15673 -4.20024,-49.62344 -1.62651,-21.46672 -3.49227,-43.75906 -4.14618,-49.53856 l -1.18888,-10.50818 h 56.91359 56.91366 l 1.2315,44.53466 c 0.6775,24.49406 1.9985,48.74156 2.9359,53.88335 1.7017,9.33547 1.6954,9.3503 -4.4595,10.47917 -11.5817,2.12412 -68.18158,8.80135 -85.48444,10.08481 l -17.27243,1.28112 z"
       id="path62" />
    <path
       style="display:inline;fill:#444444;fill-opacity:1;stroke:none;stroke-width:4.53898;stroke-linecap:round;stroke-linejoin:round;stroke-dasharray:none;stroke-dashoffset:0;stroke-opacity:1"
       d="m 1023.7587,666.75104 c -0.029,-1.73672 -0.8824,-11.71435 -1.8978,-22.17253 -2.896,-29.82855 -3.0374,-80.21884 -0.23,-81.95389 2.6541,-1.64034 119.7597,-7.29349 121.2022,-5.85095 0.5081,0.50814 -0.4058,5.3419 -2.0308,10.74172 -6.3131,20.97667 -9.4906,47.36098 -8.3372,69.22621 l 1.1213,21.25426 -24.3643,1.40331 c -13.4004,0.77178 -38.1,3.45218 -54.888,5.9564 -27.2211,4.06048 -30.5293,4.21143 -30.5754,1.39547 z"
       id="path63" />
  </g>
  <g
     inkscape:label="Layer 1"
     inkscape:groupmode="layer"
     id="layer1"
     style="display:none">
    <path
       id="path25"
       style="baseline-shift:baseline;display:inline;overflow:visible;opacity:1;vector-effect:none;stroke-linecap:round;stroke-linejoin:round;enable-background:accumulate;stop-color:#000000;stop-opacity:1"
       d="m 395.36134,119.5091 c -13.28715,3.43724 -24.69674,5.54939 -35.17188,7.125 -12.35106,1.83662 -23.42116,2.70483 -34.05468,3.13281 -4.15738,0.16744 -8.22505,0.24687 -12.22266,0.25586 a 0.33703371,0.33703371 0 0 0 -0.002,0 c -19.61593,0.0933 -41.4629,-1.43637 -59.45508,-2.26562 h -0.002 c -4.9881,-0.24503 -9.85374,-0.4671 -14.80078,-0.66016 h -0.0137 c -23.90457,-0.9108 -41.51805,-0.75033 -65.45312,-0.0312 -5.1608,0.15656 -5.48397,0.16963 -10.64453,0.32617 -22.57891,0.69751 -48.12185,1.43032 -71.888685,-2.72461 a 0.33700001,0.33700001 0 0 0 -0.388672,0.27344 0.33700001,0.33700001 0 0 0 0.273437,0.39063 c 23.86071,4.17133 49.44348,3.43191 72.02345,2.73437 5.16079,-0.15655 5.48397,-0.16962 10.64453,-0.32617 23.93246,-0.719 41.52442,-0.8795 65.41992,0.0312 4.94477,0.19297 9.80961,0.41516 14.79687,0.66016 17.9795,0.82863 39.83822,2.35911 59.49219,2.26562 4.00046,-0.009 8.07344,-0.0885 12.23438,-0.25586 a 0.33703371,0.33703371 0 0 0 0.0137,0 c 10.65187,-0.42872 21.74763,-1.29777 34.12695,-3.13867 a 0.33703371,0.33703371 0 0 0 0.002,0 c 10.49162,-1.57809 21.92736,-3.69674 35.24023,-7.14063 a 0.33700001,0.33700001 0 0 0 0.24023,-0.4121 0.33700001,0.33700001 0 0 0 -0.41015,-0.24024 z M 218.13087,68.376301 c -16.61465,-0.254136 -32.25694,0.424898 -49.14258,1.853515 -3.49985,0.295826 -6.96981,0.61692 -10.44336,0.955078 -22.77421,2.229161 -49.36091,5.867404 -71.078132,4.990235 a 0.33700001,0.33700001 0 0 0 -0.34961,0.322265 0.33700001,0.33700001 0 0 0 0.322266,0.351563 c 21.809616,0.880901 48.405566,-2.764875 71.156256,-4.992188 l 0.0156,-0.002 c 3.47129,-0.337939 6.93714,-0.657586 10.43359,-0.953125 22.4916,-1.902911 42.75842,-2.47601 66.07227,-1.28125 5.0377,0.262144 10.05643,0.595862 15.1289,0.994141 a 0.33703371,0.33703371 0 0 0 0.008,0 c 19.71585,1.492164 39.17424,4.227169 59.41015,6.292969 3.84348,0.401917 7.72565,0.765193 11.63086,1.072265 9.92108,0.785075 20.1121,1.368583 30.71094,1.201173 7.38012,-0.1339 15.12997,-0.492321 23.44141,-1.476563 a 0.33700001,0.33700001 0 0 0 0.29492,-0.375 0.33700001,0.33700001 0 0 0 -0.375,-0.294922 c -8.28189,0.980743 -16.00625,1.338999 -23.37305,1.472656 -10.56726,0.166911 -20.73538,-0.414933 -30.64648,-1.199219 -3.89851,-0.306545 -7.77462,-0.668899 -11.61329,-1.070312 a 0.33703371,0.33703371 0 0 0 0,-0.002 C 289.51493,74.171495 270.0511,71.437013 250.3068,69.942613 h -0.002 C 245.22498,69.54371 240.19849,69.21105 235.15245,68.948472 a 0.33703371,0.33703371 0 0 0 -0.002,0 c -5.83619,-0.299086 -11.48132,-0.487553 -17.01953,-0.572265 z M 202.79103,6.1555983 c -18.52955,-0.0019 -36.31168,1.543765 -54.26954,4.3984367 -3.78766,0.602112 -7.53357,1.253507 -11.25195,1.949219 -24.5044,4.586423 -47.343825,11.31752 -67.990242,15.628906 a 0.33700001,0.33700001 0 0 0 -0.259766,0.400391 0.33700001,0.33700001 0 0 0 0.398438,0.259765 c 20.686438,-4.319743 43.51304,-11.048544 67.97462,-15.626953 3.71278,-0.694666 7.45515,-1.346183 11.23633,-1.947265 23.90259,-3.7996767 47.47894,-5.2719647 72.9375,-3.8632817 5.58631,0.310038 11.16744,0.753101 16.76953,1.324219 22.41599,2.2697937 42.61093,6.3487497 64.25976,11.4101557 4.02764,0.94479 7.90388,1.870372 11.88672,2.822266 a 0.33703371,0.33703371 0 0 0 0.0117,0.002 c 9.60416,2.299629 20.42159,4.98434 29.60938,6.964844 8.17406,1.753473 16.48249,3.388541 24.56835,4.320312 a 0.33700001,0.33700001 0 0 0 0.375,-0.294922 0.33700001,0.33700001 0 0 0 -0.29687,-0.373046 c -8.04884,-0.927505 -16.33735,-2.560636 -24.50391,-4.3125 -9.17529,-1.97781 -19.99645,-4.661704 -29.60742,-6.962891 l -0.0117,-0.002 c -3.97892,-0.950956 -7.85162,-1.876063 -11.87695,-2.820313 -21.66185,-5.064487 -41.88888,-9.151853 -64.3457,-11.4257807 -5.61214,-0.572142 -11.20195,-1.013594 -16.79883,-1.324219 a 0.33703371,0.33703371 0 0 0 -0.002,0 c -6.37684,-0.352845 -12.63599,-0.526705 -18.8125,-0.527343 z M 388.70118,165.25519 c -11.81289,2.39736 -22.04224,4.1112 -31.64062,5.56836 -12.85778,1.92942 -24.06702,3.08748 -34.97461,3.8711 -4.23586,0.30391 -8.35898,0.52958 -12.40625,0.68359 a 0.33703371,0.33703371 0 0 0 -0.002,0 c -20.83974,0.84733 -40.62947,0.0923 -59.63867,-0.49609 h -0.01 c -3.67824,-0.12277 -11.18871,-0.38518 -14.86328,-0.50781 h -0.0117 c -24.15021,-0.78394 -39.11903,-0.97211 -64.40821,-0.98047 -7.5e-4,0 -10e-4,0 -0.002,0 -0.0151,-1e-5 -0.0239,0 -0.0391,0 -0.005,0 -0.0218,0 -0.0274,0 -0.0629,-1e-5 -0.16534,1e-5 -0.3125,0 -0.32006,-3e-5 -0.801,3e-5 -1.2832,0 -0.48219,-3e-5 -0.96509,2e-5 -1.28516,0 -0.14708,-1e-5 -0.24768,0 -0.31054,0 -0.0217,-1e-5 -0.0447,0 -0.0664,0 -6.4e-4,0 -0.001,0 -0.002,0 -3.71515,-7e-4 -7.57602,-8.2e-4 -11.3457,-0.01 -25.0985,-0.0483 -55.27017,-0.34998 -83.617201,-5.89648 a 0.33700001,0.33700001 0 0 0 -0.396484,0.26562 0.33700001,0.33700001 0 0 0 0.265625,0.39649 c 28.43093,5.56291 58.64329,5.85987 83.7461,5.9082 3.77065,0.009 7.63246,0.009 11.34766,0.01 6.4e-4,1e-5 0.001,0 0.002,0 0.0217,1e-5 0.0447,0 0.0664,0 0.0629,1e-5 0.16346,-1e-5 0.31054,0 0.32007,3e-5 0.80297,-2e-5 1.28516,0 0.4822,3e-5 0.96314,-2e-5 1.2832,0 0.14716,2e-5 0.24966,0 0.3125,0 0.006,1e-5 0.0226,0 0.0274,0 0.0151,1e-5 0.0239,0 0.0391,0 7.6e-4,1e-5 0.001,0 0.002,0 25.29059,0.008 40.24399,0.19636 64.39649,0.98047 a 0.33703371,0.33703371 0 0 0 0.0117,0 c 3.67875,0.12279 11.18918,0.3852 14.86328,0.50782 a 0.33703371,0.33703371 0 0 0 0.0117,0 c 19.00233,0.58819 38.80669,1.34266 59.67578,0.49414 4.05469,-0.15429 8.18626,-0.37719 12.42969,-0.68164 10.92265,-0.7847 22.15105,-1.94667 35.02734,-3.87891 9.60558,-1.45826 19.8479,-3.17226 31.67383,-5.57227 a 0.33700001,0.33700001 0 0 0 0.26367,-0.39843 0.33700001,0.33700001 0 0 0 -0.39844,-0.26368 z m -271.9414,73.00391 c -15.53866,0.17009 -32.162501,2.16264 -50.126967,7.22266 a 0.33700001,0.33700001 0 0 0 -0.234375,0.41601 0.33700001,0.33700001 0 0 0 0.416016,0.23242 c 35.808916,-10.08622 66.250186,-7.94026 93.449226,-3.5 3.96694,0.64829 7.88718,1.35057 11.74414,2.08008 26.0117,4.91661 43.71459,9.5973 67.39258,11.96875 l 0.0332,0.002 c 4.81886,0.48288 9.57882,0.82451 14.35743,1.02148 19.66697,0.79875 35.69688,-0.7914 55.3164,-3.74219 3.50935,-0.52622 7.02248,-1.07559 10.54492,-1.61523 8.70092,-1.3335 18.43505,-2.77852 27.1543,-3.39258 6.63573,-0.46918 13.46379,-0.52507 20.03516,0.31055 a 0.33700001,0.33700001 0 0 0 0.37695,-0.29297 0.33700001,0.33700001 0 0 0 -0.29297,-0.37695 c -6.63309,-0.84347 -13.50171,-0.7837 -20.16601,-0.3125 -8.75799,0.61678 -18.50568,2.06262 -27.20899,3.39648 -3.5239,0.53986 -7.03845,1.09139 -10.54492,1.61719 -19.60138,2.94805 -35.57159,4.533 -55.1875,3.73633 -4.77599,-0.19686 -9.53377,-0.54004 -14.35156,-1.02344 -23.62363,-2.36601 -41.30046,-7.03825 -67.33399,-11.95899 -3.86116,-0.7303 -7.78599,-1.43458 -11.75976,-2.08398 -13.62197,-2.2238 -28.07464,-3.87517 -43.61328,-3.70508 z M 54.544923,206.21613 a 0.33700001,0.33700001 0 0 0 -0.341797,0.33203 0.33700001,0.33700001 0 0 0 0.332031,0.3418 c 37.307509,0.53068 69.726893,-0.0267 99.068373,0.48633 a 0.33703371,0.33703371 0 0 0 0.006,0 c 4.11338,0.0739 8.14611,0.16063 12.14258,0.26367 26.36563,0.67461 45.56229,1.85186 69.09961,2.97656 a 0.33703371,0.33703371 0 0 0 0.0156,0 c 4.91072,0.2386 9.76976,0.459 14.63867,0.65039 19.04446,0.6966 35.0914,1.04048 54.64258,0.49024 0.75867,-0.022 1.5186,-0.0439 2.28125,-0.0684 3.74356,-0.10981 7.49512,-0.25847 11.33593,-0.4375 12.43302,-0.57961 17.12646,-0.87088 30.46094,-1.56641 a 0.33703371,0.33703371 0 0 0 0.002,0 c 6.79378,-0.37092 14.15304,-0.63097 21.72851,-0.76953 a 0.33700001,0.33700001 0 0 0 0.33203,-0.34375 0.33700001,0.33700001 0 0 0 -0.34375,-0.33008 c -7.58291,0.1387 -14.95079,0.3981 -21.7539,0.76953 -13.33608,0.69562 -18.02667,0.98888 -30.45704,1.56836 -3.83756,0.17889 -7.58703,0.32588 -11.32617,0.43555 -0.76199,0.0244 -1.5213,0.0464 -2.27929,0.0684 -19.53292,0.54972 -35.55892,0.20615 -54.59766,-0.49023 -4.87146,-0.1915 -9.73388,-0.41157 -14.64844,-0.6504 h -0.0156 c -23.52489,-1.12422 -42.72649,-2.30181 -69.09766,-2.97656 -4.00018,-0.10313 -8.03715,-0.19171 -12.1543,-0.26562 h -0.006 c -29.35723,-0.51322 -61.771575,0.0461 -99.064457,-0.48438 z M 208.47071,-3.0592451 a 0.30000001,0.30000001 0 0 0 -0.21875,0.363281 c 5.39995,21.6505901 10.46858,40.0133761 14.79297,60.4746081 3.4398,16.407279 5.76792,31.946142 6.64063,47.615226 0.71621,13.6816 0.37949,26.19096 -0.73047,37.98242 -0.40217,4.26164 -0.85378,8.33751 -1.32617,12.25195 a 0.30003001,0.30003001 0 0 0 0,0.002 c -0.66691,5.86087 -1.37413,11.41009 -2.01172,16.62891 -0.97933,8.17014 -1.55406,15.12887 -1.56055,22.0918 a 0.30003001,0.30003001 0 0 0 0,0.002 c 0.0501,6.46094 0.53068,11.88461 1.4375,18.09961 a 0.30003001,0.30003001 0 0 0 0,0.004 c 0.89369,5.52965 1.63658,11.82278 2.41406,19.57812 0.52848,6.21225 1.14348,13.96787 1.97071,23.24805 a 0.30000001,0.30000001 0 0 0 0.32617,0.27344 0.30000001,0.30000001 0 0 0 0.27148,-0.32618 c -0.82707,-9.27847 -1.44192,-17.03437 -1.9707,-23.25 a 0.30003001,0.30003001 0 0 0 0,-0.004 c -0.7779,-7.75948 -1.52143,-14.06334 -2.41797,-19.61133 v -0.004 c -0.90352,-6.19332 -1.38167,-11.57824 -1.43164,-18.00976 v -0.002 c 0.007,-6.92963 0.5789,-13.86061 1.55664,-22.01757 0.63725,-5.21602 1.34431,-10.76568 2.01172,-16.63086 v -0.002 c 0.47281,-3.91797 0.92544,-7.99851 1.32812,-12.26562 1.11267,-11.8202 1.44834,-24.361 0.73047,-38.07227 a 0.30003001,0.30003001 0 0 0 0,-0.002 C 229.40844,89.652366 227.07708,74.084019 223.63282,57.655468 219.30383,37.17248 214.23188,18.799748 208.83399,-2.8425781 a 0.30000001,0.30000001 0 0 0 -0.36328,-0.216797 z m 51.02539,8.3398434 a 0.30000001,0.30000001 0 0 0 -0.26172,0.333984 c 2.16192,17.7373207 5.65376,36.2123037 8.50586,53.0683587 2.71007,16.178601 4.78333,31.209345 5.63672,46.714829 0.69591,13.47797 0.50681,25.78205 -0.47461,37.53516 -0.35508,4.24179 -0.76058,8.30684 -1.19922,12.22851 a 0.30003001,0.30003001 0 0 0 -0.002,0.002 c -0.61942,5.90203 -1.29361,11.42185 -1.95508,16.73242 a 0.30003001,0.30003001 0 0 0 0,0.002 c -1.00758,8.23971 -1.72447,15.38001 -1.98242,22.45703 a 0.30003001,0.30003001 0 0 0 0,0.01 c -0.18102,6.54419 -0.007,12.14878 0.57422,18.35156 a 0.30003001,0.30003001 0 0 0 0,0.004 c 0.61049,5.63058 1.01653,11.69209 1.62109,19.30273 0.45059,7.28999 1.20137,17.46551 2.62305,29.32422 a 0.30000001,0.30000001 0 0 0 0.33203,0.26172 0.30000001,0.30000001 0 0 0 0.26367,-0.33398 c -1.42013,-11.84586 -2.16899,-22.01118 -2.61914,-29.29493 a 0.30003001,0.30003001 0 0 0 -0.002,-0.004 c -0.60413,-7.60519 -1.00891,-13.66928 -1.62109,-19.31641 v -0.004 c -0.57864,-6.18153 -0.75307,-11.75505 -0.57227,-18.28125 a 0.30003001,0.30003001 0 0 0 0,-0.01 c 0.25737,-7.04753 0.97239,-14.16672 1.97852,-22.39453 0.6615,-5.31088 1.33699,-10.83454 1.95703,-16.74219 v -0.002 c 0.4391,-3.92597 0.84563,-7.99495 1.20117,-12.24219 0.98337,-11.7766 1.17274,-24.10557 0.47656,-37.60156 a 0.30003001,0.30003001 0 0 0 0,-0.0176 c -0.85505,-15.537414 -2.9326,-30.592021 -5.64443,-46.781148 -2.85351,-16.864366 -6.34337,-35.331056 -8.50195,-53.0410157 a 0.30000001,0.30000001 0 0 0 -0.33399,-0.261718 z m 49.17774,6.6425777 a 0.30000001,0.30000001 0 0 0 -0.30664,0.292968 c -0.3986,16.950377 1.9973,33.871807 4.58008,50.166016 2.37776,15.169635 4.59451,28.667156 5.83398,43.40038 a 0.30003001,0.30003001 0 0 0 0.002,0.0254 c 1.02165,12.64378 1.26035,24.25297 0.58008,35.58984 -0.24578,4.08667 -0.56646,8.02759 -0.95312,11.86328 a 0.30003001,0.30003001 0 0 0 0,0.002 c -0.54658,5.78073 -1.22886,11.23411 -1.99805,16.54297 -1.15302,8.07237 -2.33278,15.64598 -3.19727,22.67968 a 0.30003001,0.30003001 0 0 0 0,0.004 c -0.7535,6.5664 -1.2977,12.42702 -1.40234,18.41797 a 0.30003001,0.30003001 0 0 0 0,0.004 c -0.032,5.40788 -0.1935,11.26487 0.0645,17.8125 0.10418,6.14712 0.62887,14.08613 2.10157,23.46094 a 0.30000001,0.30000001 0 0 0 0.34375,0.25 0.30000001,0.30000001 0 0 0 0.25,-0.34375 c -1.46858,-9.34859 -1.99223,-17.26213 -2.09571,-23.38476 a 0.30003001,0.30003001 0 0 0 0,-0.006 c -0.25701,-6.52367 -0.0965,-12.36787 -0.0645,-17.78516 0.10429,-5.96019 0.64599,-11.80019 1.39844,-18.35742 v -0.002 c 0.86277,-7.01938 2.04172,-14.58768 3.19531,-22.66407 0.77024,-5.31606 1.45432,-10.77891 2.00195,-16.57031 v -0.002 c 0.38738,-3.84303 0.7069,-7.79068 0.95313,-11.88477 0.68223,-11.36971 0.44333,-23.0101 -0.58008,-35.67578 a 0.30003001,0.30003001 0 0 0 0,-0.002 c -1.24155,-14.773024 -3.46292,-28.291956 -5.8418,-43.46874 -2.5817,-16.287425 -4.96931,-33.172175 -4.57226,-50.056641 a 0.30000001,0.30000001 0 0 0 -0.29297,-0.308593 z m 46.3789,14.144531 a 0.30000001,0.30000001 0 0 0 -0.32812,0.269531 c -1.21413,12.620021 1.39536,25.296307 4.78906,37.691406 3.35617,12.305444 7.45121,24.595185 10.42188,36.910146 2.62468,10.94463 4.36477,21.34081 4.80468,31.97461 0.15884,3.83537 0.15926,7.61616 0,11.37695 a 0.30003001,0.30003001 0 0 0 0,0.002 c -0.22591,5.69038 -0.8213,11.23708 -1.74804,16.75977 -1.42991,8.56064 -3.50141,16.5422 -5.90235,24.61719 -2.15259,7.31633 -4.5304,14.31427 -6.56836,21.18554 -1.88581,6.38911 -3.7257,12.87682 -4.68164,19.3418 -1.13459,7.15639 -1.23314,15.0761 0.97852,23.59375 a 0.30000001,0.30000001 0 0 0 0.36523,0.21484 0.30000001,0.30000001 0 0 0 0.2168,-0.36523 c -2.18825,-8.42748 -2.09402,-16.25846 -0.96875,-23.35352 a 0.30003001,0.30003001 0 0 0 0,-0.002 c 0.94812,-6.4121 2.78141,-12.87477 4.66602,-19.25976 2.03334,-6.85573 4.41123,-13.85382 6.56836,-21.18555 2.40486,-8.08821 4.48254,-16.09382 5.91796,-24.6875 0.93064,-5.54588 1.5289,-11.11913 1.75586,-16.83594 0.15999,-3.77793 0.15951,-7.57622 0,-11.42773 -0.44194,-10.68293 -2.18955,-21.11988 -4.82031,-32.08985 -2.97879,-12.348641 -7.07553,-24.64399 -10.42578,-36.927719 -3.38685,-12.370076 -5.97409,-24.976339 -4.77148,-37.476562 a 0.30000001,0.30000001 0 0 0 -0.26954,-0.326172 z M 160.03321,2.2669266 a 0.30000001,0.30000001 0 0 0 -0.16797,0.388672 c 8.03446,20.2059374 14.82943,39.1824234 19.79688,58.6249994 4.05415,15.989284 6.51528,31.386368 7.24609,46.716782 0.59378,13.41895 -0.0606,25.73266 -1.53125,37.23242 -0.53371,4.16262 -1.1225,8.1387 -1.73047,11.94727 a 0.30003001,0.30003001 0 0 0 0,0.002 c -0.87433,5.71653 -1.77892,11.06928 -2.59179,16.12891 -1.24874,7.89483 -2.02057,14.57734 -2.09375,21.20703 a 0.30003001,0.30003001 0 0 0 0,0.002 c -0.011,6.14169 0.52464,11.25961 1.62695,16.98243 a 0.30003001,0.30003001 0 0 0 0.002,0.006 c 1.04836,4.95038 2.1408,10.87928 3.15625,17.60547 0.7362,5.59072 1.48775,12.27318 2.28711,20.62696 a 0.30000001,0.30000001 0 0 0 0.32813,0.26953 0.30000001,0.30000001 0 0 0 0.26953,-0.32617 c -0.79987,-8.35905 -1.55168,-15.04874 -2.28906,-20.64844 a 0.30003001,0.30003001 0 0 0 -0.002,-0.006 c -1.01712,-6.73814 -2.11112,-12.6773 -3.16211,-17.64063 l -0.002,-0.006 c -1.09578,-5.69062 -1.6262,-10.75731 -1.61523,-16.86132 a 0.30003001,0.30003001 0 0 0 0,-0.002 c 0.073,-6.58573 0.83983,-13.23477 2.08593,-21.11328 v -0.002 c 0.81226,-5.05573 1.71864,-10.40922 2.59375,-16.13086 l -0.002,0.002 c 0.60872,-3.81325 1.19971,-7.79681 1.73438,-11.96679 1.47476,-11.53162 2.13066,-23.88057 1.53515,-37.33594 a 0.30003001,0.30003001 0 0 0 -0.002,-0.002 C 186.77292,92.592776 184.30664,77.154334 180.24415,61.13216 175.2674,41.653174 168.46304,22.652762 160.42384,2.4348946 a 0.30000001,0.30000001 0 0 0 -0.39063,-0.167968 z M 74.996095,25.966144 a 0.30000001,0.30000001 0 0 0 -0.07617,0.417969 c 10.746764,15.490938 18.277514,31.364027 22.470703,47.53711 3.442682,13.326096 4.502402,26.640857 3.384762,39.720687 -0.997002,11.48618 -3.607033,22.35598 -7.123043,32.66993 -1.278967,3.74827 -2.651909,7.38684 -4.06836,10.93359 -2.126433,5.34539 -4.351211,10.50468 -6.460937,15.47461 -3.274002,7.73215 -6.137362,14.77346 -8.052735,21.96875 a 0.30003001,0.30003001 0 0 0 -0.0039,0.0195 c -1.731246,6.59042 -2.576071,12.78219 -2.134765,19.25781 a 0.30003001,0.30003001 0 0 0 0,0.002 c 0.447225,6.11136 1.868904,12.0263 4.238281,18.21093 1.805672,4.84431 4.101736,9.79428 6.376953,14.95899 a 0.30000001,0.30000001 0 0 0 0.394531,0.15234 0.30000001,0.30000001 0 0 0 0.154297,-0.39453 c -2.278224,-5.17153 -4.569045,-10.11215 -6.363281,-14.92578 a 0.30003001,0.30003001 0 0 0 -0.002,-0.002 c -2.352941,-6.14089 -3.758399,-11.99334 -4.201172,-18.04102 v -0.002 c -0.436062,-6.40246 0.398434,-12.52717 2.121094,-19.08008 v -0.002 c 1.902178,-7.14512 4.753723,-14.16204 8.02539,-21.88868 2.10858,-4.96722 4.334508,-10.13121 6.464844,-15.48632 v -0.002 c 1.419066,-3.55336 2.797222,-7.20126 4.080078,-10.96094 3.52829,-10.34996 6.150355,-21.26891 7.152345,-32.8125 1.12337,-13.14691 0.0594,-26.530281 -3.400392,-39.921858 a 0.30003001,0.30003001 0 0 0 0,-0.002 C 93.759598,57.519156 86.193456,41.583102 75.41211,26.042316 a 0.30000001,0.30000001 0 0 0 -0.416015,-0.07617 z M 115.18165,13.384113 a 0.30000001,0.30000001 0 0 0 -0.11914,0.408203 c 9.96717,18.23813 17.66183,36.080118 22.74023,54.263672 4.15644,14.993904 6.27353,29.682255 6.38477,44.197252 0.0564,12.72606 -1.33242,24.49574 -3.60156,35.4668 -0.82455,3.97699 -1.71777,7.78225 -2.63477,11.43555 a 0.30003001,0.30003001 0 0 0 0,0.002 c -1.34441,5.47262 -2.74305,10.66257 -4.01953,15.5293 -1.97592,7.60697 -3.44302,14.12679 -4.05469,20.55468 a 0.30003001,0.30003001 0 0 0 -0.002,0.0274 c -0.50787,5.91575 -0.2987,10.95585 0.77539,16.27734 a 0.30003001,0.30003001 0 0 0 0.002,0.006 c 1.16328,5.24571 2.28196,9.33388 3.94336,15.44141 1.11287,4.51658 2.35349,9.93604 3.49805,16.39648 a 0.30000001,0.30000001 0 0 0 0.34766,0.24414 0.30000001,0.30000001 0 0 0 0.24218,-0.34766 c -1.14792,-6.47943 -2.39275,-11.91815 -3.50781,-16.44335 a 0.30003001,0.30003001 0 0 0 -0.002,-0.006 c -1.66105,-6.10622 -2.77398,-10.18146 -3.9336,-15.41016 -1.06396,-5.27133 -1.27425,-10.24628 -0.76757,-16.12891 v -0.004 c 0.60687,-6.37412 2.06659,-12.86125 4.03906,-20.45508 v -0.002 c 1.27547,-4.86285 2.67534,-10.0556 4.02148,-15.53516 v -0.002 c 0.91858,-3.65965 1.81213,-7.4722 2.63868,-11.45899 2.27666,-11.00743 3.67193,-22.81968 3.61523,-35.59179 a 0.30003001,0.30003001 0 0 0 0,-0.002 c -0.11161,-14.570067 -2.23682,-29.310818 -6.4062,-44.351408 -5.09329,-18.236846 -12.80719,-36.12202 -22.79102,-54.390625 a 0.30000001,0.30000001 0 0 0 -0.4082,-0.121094 z"
       transform="translate(-38.328089,17.22224)" />
    <g
       id="g26"
       transform="translate(-31.743141,0.58783595)"
       style="display:none" />
  </g>
</svg>
