<?xml version="1.0" encoding="UTF-8" standalone="no"?>
<svg
   width="380.98001"
   height="289.522"
   version="1.1"
   id="svg22"
   sodipodi:docname="divider-1-xml.svg"
   inkscape:version="1.4.3 (0d15f75042, 2025-12-25)"
   xmlns:inkscape="http://www.inkscape.org/namespaces/inkscape"
   xmlns:sodipodi="http://sodipodi.sourceforge.net/DTD/sodipodi-0.dtd"
   xmlns="http://www.w3.org/2000/svg"
   xmlns:svg="http://www.w3.org/2000/svg">
  <sodipodi:namedview
     id="namedview22"
     pagecolor="#ffffff"
     bordercolor="#000000"
     borderopacity="0.25"
     inkscape:showpageshadow="2"
     inkscape:pageopacity="0.0"
     inkscape:pagecheckerboard="0"
     inkscape:deskcolor="#d1d1d1"
     inkscape:zoom="1.5136703"
     inkscape:cx="213.71893"
     inkscape:cy="165.49178"
     inkscape:window-width="1536"
     inkscape:window-height="804"
     inkscape:window-x="0"
     inkscape:window-y="0"
     inkscape:window-maximized="1"
     inkscape:current-layer="g11" />
  <defs
     id="defs1">
    <marker
       id="a"
       overflow="visible"
       orient="auto">
      <path
         transform="matrix(-0.4,0,0,-0.4,-4,0)"
         d="M 0,0 5,-5 -12.5,0 5,5 Z"
         stroke="#000000"
         id="path1" />
    </marker>
  </defs>
  <g
     fill="none"
     stroke="#000000"
     stroke-linecap="round"
     id="g11"
     transform="translate(-1.25,-3.728)">
    <path
       d="m 293.38,4.978 -14,59.5 -14,59.5"
       marker-mid="url(#a)"
       stroke-width="2.5"
       id="path4"
       style="stroke:#000000;stroke-width:1.7;stroke-dasharray:none;stroke-opacity:1" />
    <path
       d="m 265.22299,124.98957 45.50351,32.02296 55.33686,37.64203"
       marker-mid="url(#a)"
       stroke-width="2.5"
       id="path5"
       style="stroke:#000000;stroke-width:1.7;stroke-dasharray:none;stroke-opacity:1"
       inkscape:transform-center-x="-45.780236"
       inkscape:transform-center-y="32.38778"
       sodipodi:nodetypes="ccc" />
    <path
       d="M 34,292 66.8,231 99.6,170"
       marker-mid="url(#a)"
       stroke-width="2.5"
       id="path7"
       style="stroke:#000000;stroke-width:1.7;stroke-dasharray:none;stroke-opacity:1" />
    <path
       d="M 100,170 71.200287,93.999893 42.400583,17.999778"
       marker-mid="url(#a)"
       stroke-width="2.5"
       id="path8"
       style="stroke:#000000;stroke-width:1.7;stroke-dasharray:none;stroke-opacity:1"
       inkscape:transform-center-x="28.782464"
       inkscape:transform-center-y="-75.08556" />
    <g
       id="g22"
       style="stroke-width:1.6;stroke-dasharray:none">
      <path
         d="m 100,170 c 0.565,-9.74 0.061,-19.8 3.05,-29.2 1.53,-6.24 8.44,-3.02 10.7,0.893 10.7,12.5 17.4,28 28.4,40.3 2.48,4.29 9.5,5.37 10.3,-0.671 2.97,-11.1 2.3,-22.7 2.95,-34.1 0.496,-8.09 0.287,-16.5 3.14,-24.2 2.19,-5.8 8.61,-1.41 10.8,2.04 10.3,12.2 17,27 27.3,39.1 2.28,3.91 9.17,7.12 10.7,0.888 2.99,-9.36 2.48,-19.5 3.05,-29.2"
         stroke-width="2.5"
         id="path11"
         style="stroke:#000000;stroke-width:1.6;stroke-dasharray:none;stroke-opacity:1" />
      <path
         d="m 210.39,135.85 c 0.496,-8.09 0.287,-16.5 3.14,-24.2 2.19,-5.8 8.61,-1.41 10.8,2.04 10.3,12.2 17,27 27.3,39.1 2.28,3.91 9.17,7.12 10.7,0.888 2.99,-9.36 2.48,-19.5 3.05,-29.2"
         stroke-width="2.5"
         id="path22"
         sodipodi:nodetypes="cccccc"
         style="stroke:#000000;stroke-width:1.6;stroke-dasharray:none;stroke-opacity:1" />
    </g>
  </g>
</svg>
